<svg version="1.1" id="Layer_1" xmlns="http://www.w3.org/2000/svg" xmlns:xlink="http://www.w3.org/1999/xlink" x="0px" y="0px"
	 width="100%" viewBox="0 0 1024 1024" enable-background="new 0 0 1024 1024" xml:space="preserve">
<path fill="#FEFEFE" opacity="1.000000" stroke="none" 
	d="
M708.000000,1025.000000 
	C472.000000,1025.000000 236.500000,1025.000000 1.000000,1025.000000 
	C1.000000,683.666687 1.000000,342.333344 1.000000,1.000000 
	C342.333344,1.000000 683.666687,1.000000 1025.000000,1.000000 
	C1025.000000,342.333344 1025.000000,683.666687 1025.000000,1025.000000 
	C919.500000,1025.000000 814.000000,1025.000000 708.000000,1025.000000 
M193.479446,709.509766 
	C191.663223,718.012207 189.847000,726.514587 187.874313,735.841187 
	C186.599350,748.983215 185.162323,762.149292 192.701492,773.918701 
	C185.211945,778.383301 177.434769,782.443420 170.351562,787.479492 
	C166.689041,790.083557 164.217316,795.174438 166.346207,799.470703 
	C168.523132,803.863831 172.212952,807.980957 176.199127,810.917786 
	C189.821182,820.953613 205.956558,825.529846 221.955383,829.877991 
	C251.358932,837.869446 281.232910,843.690308 311.541809,847.089783 
	C335.361237,849.761292 359.166138,852.596436 383.022034,854.896912 
	C398.183289,856.358887 413.415710,857.192322 428.634827,857.916931 
	C447.537506,858.816833 466.456940,859.770691 485.373596,859.871033 
	C510.489594,860.004272 535.617493,859.614685 560.725952,858.926025 
	C582.108398,858.339539 603.488770,857.296692 624.836365,855.929443 
	C644.648254,854.660400 664.455872,853.067871 684.191345,850.933411 
	C704.723938,848.712646 725.240662,846.128845 745.632629,842.877258 
	C772.637390,838.571228 799.392212,832.966370 825.044617,823.105286 
	C836.100281,818.855469 846.985962,814.282898 855.226929,805.264099 
	C860.226257,799.792908 860.559021,793.970520 855.219604,788.925476 
	C850.804688,784.753967 845.524109,781.500305 840.639221,777.823792 
	C838.077087,775.895447 835.541199,773.932312 833.185974,771.301453 
	C834.622009,767.627686 836.716125,764.067688 837.374512,760.259521 
	C839.613403,747.309509 837.906921,734.416077 835.928894,721.565247 
	C831.593445,693.398743 818.899780,678.541443 793.301025,671.939148 
	C777.671387,666.829895 761.703918,663.748962 745.422974,663.318848 
	C750.325989,655.995544 755.475647,648.824036 760.090942,641.323730 
	C785.305847,600.347534 799.609985,555.761536 802.744751,507.804077 
	C804.474548,481.339539 803.054199,454.936737 797.264587,428.386322 
	C809.109924,418.702759 820.972839,409.040558 832.796204,399.330353 
	C847.836914,386.977844 863.059204,374.834381 877.803772,362.136932 
	C890.598450,351.118591 899.670654,337.917206 898.071777,319.851379 
	C897.120422,309.101929 887.672852,297.539825 877.261475,294.859344 
	C875.797546,293.924377 874.450378,292.633759 872.851868,292.108612 
	C853.512634,285.755829 836.833313,290.794220 822.765320,304.769073 
	C815.952026,311.537201 810.015442,319.186554 803.663879,326.421051 
	C793.821838,337.631256 783.964172,348.827820 774.045898,359.297729 
	C756.694824,323.442566 733.097351,292.210175 702.532288,266.779602 
	C687.922241,254.623825 671.371826,244.800140 655.204773,233.360245 
	C598.315979,202.185211 537.607178,191.283096 473.446625,199.665665 
	C413.130310,207.545990 359.735840,231.437775 315.406586,273.066406 
	C233.058548,350.397644 205.001541,445.408752 227.576080,555.533264 
	C235.632950,594.836853 253.188644,630.214478 275.637329,663.565430 
	C257.385956,664.163269 239.665985,667.440857 223.071808,675.218323 
	C208.457703,682.067627 197.666351,692.558472 193.479446,709.509766 
z"/>
<path fill="#307686" opacity="1.000000" stroke="none" 
	d="
M276.224670,662.923706 
	C253.188644,630.214478 235.632950,594.836853 227.576080,555.533264 
	C205.001541,445.408752 233.058548,350.397644 315.406586,273.066406 
	C359.735840,231.437775 413.130310,207.545990 473.446625,199.665665 
	C537.607178,191.283096 598.315979,202.185211 654.959961,233.676208 
	C653.057251,233.902084 651.397400,233.708069 649.741638,233.738495 
	C637.170776,233.969437 624.434998,233.049622 612.066223,234.764313 
	C589.174500,237.937820 572.898621,251.702347 560.442139,270.866150 
	C558.076721,270.665314 556.035156,270.398132 553.582520,270.053986 
	C542.700256,269.022980 532.225952,268.100372 521.760925,267.082825 
	C520.090210,266.920380 518.460876,266.332214 517.003113,265.660522 
	C528.488342,251.442947 538.956604,236.937561 547.763916,221.243530 
	C537.113770,230.836853 526.889282,240.765732 516.690491,250.721008 
	C510.771942,256.498291 504.894775,262.317963 498.795959,267.824585 
	C490.267792,268.919678 481.816528,269.791229 473.638428,271.783875 
	C428.434662,282.797913 391.353973,306.800079 361.801697,342.598969 
	C323.487823,389.011353 307.920013,442.609253 311.186340,502.471436 
	C306.772156,505.082001 302.457092,507.209106 298.498779,509.867432 
	C292.744537,513.731934 287.086487,517.836182 284.974182,525.004395 
	C285.002411,525.005066 284.987183,524.950684 284.712402,525.189575 
	C284.217682,526.623901 283.997711,527.819214 283.570404,529.273865 
	C283.347321,530.406982 283.331604,531.280823 283.270233,532.609619 
	C283.491638,540.950195 283.758698,548.835938 283.982727,557.204224 
	C283.708344,580.885986 288.863434,603.161316 296.294495,624.892456 
	C299.705261,634.866821 304.719208,644.292908 309.036499,654.328796 
	C312.634125,660.516235 316.201324,666.342590 319.866943,672.522705 
	C320.398163,674.296875 320.830994,675.717224 320.892944,677.085205 
	C319.666840,676.567200 318.847717,676.011658 317.950500,675.649963 
	C310.730621,672.738831 303.496002,669.864197 296.010925,666.682617 
	C294.044067,665.909912 292.358704,665.268372 290.615265,664.987976 
	C285.831451,664.218750 281.023224,663.601257 276.224670,662.923706 
z"/>
<path fill="#E4E8ED" opacity="1.000000" stroke="none" 
	d="
M832.993408,771.984924 
	C835.541199,773.932312 838.077087,775.895447 840.639221,777.823792 
	C845.524109,781.500305 850.804688,784.753967 855.219604,788.925476 
	C860.559021,793.970520 860.226257,799.792908 855.226929,805.264099 
	C846.985962,814.282898 836.100281,818.855469 825.044617,823.105286 
	C799.392212,832.966370 772.637390,838.571228 745.632629,842.877258 
	C725.240662,846.128845 704.723938,848.712646 684.191345,850.933411 
	C664.455872,853.067871 644.648254,854.660400 624.836365,855.929443 
	C603.488770,857.296692 582.108398,858.339539 560.725952,858.926025 
	C535.617493,859.614685 510.489594,860.004272 485.373596,859.871033 
	C466.456940,859.770691 447.537506,858.816833 428.634827,857.916931 
	C413.415710,857.192322 398.183289,856.358887 383.022034,854.896912 
	C359.166138,852.596436 335.361237,849.761292 311.541809,847.089783 
	C281.232910,843.690308 251.358932,837.869446 221.955383,829.877991 
	C205.956558,825.529846 189.821182,820.953613 176.199127,810.917786 
	C172.212952,807.980957 168.523132,803.863831 166.346207,799.470703 
	C164.217316,795.174438 166.689041,790.083557 170.351562,787.479492 
	C177.434769,782.443420 185.211945,778.383301 193.380096,774.053345 
	C200.112991,780.542236 207.563232,785.022827 216.112381,785.879822 
	C230.635941,787.335876 245.277893,787.708008 259.881531,788.186707 
	C262.788574,788.282043 264.064728,789.123657 265.597595,791.496155 
	C269.998566,798.307922 274.573730,805.056641 279.657074,811.365540 
	C286.138885,819.409973 295.021606,823.165649 305.256378,824.149719 
	C319.336670,825.503723 333.480377,826.542786 347.442841,828.709534 
	C381.697205,834.025391 413.875183,826.411194 445.352448,813.978088 
	C453.971039,810.573792 455.653015,806.439453 453.105591,797.445312 
	C452.337402,794.733093 451.487701,792.043945 450.532684,788.870178 
	C475.461182,794.497070 500.051025,795.398987 524.703247,794.700867 
	C535.483948,794.395508 546.231628,792.923340 557.411377,791.999756 
	C564.208557,790.929138 570.588684,789.839844 576.993713,789.198425 
	C575.521484,798.352417 575.738281,806.914062 579.285400,815.514526 
	C582.073792,822.143372 586.551697,826.677246 593.394165,827.775574 
	C600.527771,828.920654 607.793152,829.244812 615.400146,830.026245 
	C619.199097,830.368774 622.598877,830.612915 626.390076,830.946411 
	C627.848206,831.040283 628.914917,831.044800 630.372559,831.166992 
	C643.512512,831.198425 656.261536,831.112122 669.384949,831.080078 
	C670.506592,831.037598 671.253784,830.940796 672.415405,830.883789 
	C676.230469,830.307861 679.631165,829.692078 683.365906,829.109741 
	C684.133667,829.043152 684.567322,828.943237 685.320801,828.877502 
	C686.438782,828.636047 687.237061,828.360474 688.369751,828.108032 
	C689.136414,828.024475 689.568604,827.917908 690.384644,827.822327 
	C695.180115,826.225281 699.591858,824.617188 704.348572,822.973145 
	C708.377441,819.472778 713.307617,816.648132 715.483582,812.409546 
	C719.892273,803.821777 714.796265,795.444031 712.281860,786.746826 
	C716.127441,787.175354 719.575195,787.876709 723.026245,787.893188 
	C747.173035,788.008789 771.333801,788.471313 795.462830,787.817017 
	C809.680298,787.431458 822.979919,783.169495 832.993408,771.984924 
z"/>
<path fill="#7EB8C2" opacity="1.000000" stroke="none" 
	d="
M560.765930,270.799805 
	C572.898621,251.702347 589.174500,237.937820 612.066223,234.764313 
	C624.434998,233.049622 637.170776,233.969437 649.741638,233.738495 
	C651.397400,233.708069 653.057251,233.902084 655.207764,233.956177 
	C671.371826,244.800140 687.922241,254.623825 702.532288,266.779602 
	C733.097351,292.210175 756.694824,323.442566 773.994690,359.999695 
	C773.239258,361.628906 772.588257,362.602875 771.822876,363.476624 
	C757.458923,379.871857 743.157715,396.322998 728.683472,412.620483 
	C716.316589,426.545135 703.747925,440.290558 690.940125,453.885559 
	C689.415894,447.023621 688.160339,440.401428 687.034973,433.757233 
	C683.294983,411.675262 676.235107,390.670258 665.752075,370.932037 
	C663.168823,366.068024 658.569336,362.274780 654.909973,357.563293 
	C655.683655,350.875122 656.464294,344.615387 657.201172,338.350494 
	C660.103577,313.674408 651.448181,293.328247 633.870850,276.370697 
	C633.081543,275.609253 631.830017,275.326965 630.255676,274.559052 
	C634.033569,281.665161 637.887451,287.743073 640.623657,294.288300 
	C647.829041,311.524292 647.079773,328.898895 639.948853,345.989746 
	C635.392334,340.369232 631.552429,334.532074 626.851807,329.498718 
	C615.574646,317.423157 603.918701,305.700073 592.357544,293.891602 
	C589.349548,290.819244 586.128235,287.955780 582.853638,284.689606 
	C580.413757,282.865479 578.167908,281.277985 575.827454,279.845123 
	C570.833008,276.787506 565.789368,273.810089 560.765930,270.799805 
z"/>
<path fill="#653F2F" opacity="1.000000" stroke="none" 
	d="
M691.268433,454.115234 
	C703.747925,440.290558 716.316589,426.545135 728.683472,412.620483 
	C743.157715,396.322998 757.458923,379.871857 771.822876,363.476624 
	C772.588257,362.602875 773.239258,361.628906 774.028320,360.365906 
	C783.964172,348.827820 793.821838,337.631256 803.663879,326.421051 
	C810.015442,319.186554 815.952026,311.537201 822.765320,304.769073 
	C836.833313,290.794220 853.512634,285.755829 872.851868,292.108612 
	C874.450378,292.633759 875.797546,293.924377 877.740662,295.257629 
	C878.868652,296.619385 879.365479,297.744781 880.191101,298.519958 
	C885.429138,303.437897 887.020813,309.643555 887.069702,316.571045 
	C887.155273,328.711884 881.957947,339.002930 873.492981,346.625458 
	C854.886658,363.379944 835.483093,379.265808 816.121643,395.161133 
	C784.326111,421.264587 752.343506,447.140900 720.367554,473.023895 
	C695.225281,493.375366 669.938599,513.548401 644.806946,533.912842 
	C640.626892,537.299988 636.911804,541.260986 632.521851,545.033569 
	C624.724426,544.839478 617.387024,544.568665 609.244263,544.268127 
	C610.712524,542.170898 611.448181,541.119995 612.479004,539.940796 
	C614.442505,537.921265 616.111023,536.030151 618.088257,533.976501 
	C625.704407,526.206787 633.087585,518.670227 640.276367,510.952606 
	C642.679260,508.372955 644.585632,505.330719 647.063477,502.353943 
	C649.973511,499.512665 652.538940,496.817413 655.384033,493.958862 
	C657.373474,491.935516 659.083191,490.075470 661.080811,487.998474 
	C671.335266,476.559448 681.301819,465.337341 691.268433,454.115234 
M778.303589,393.869812 
	C778.206726,393.916748 778.109863,393.963654 777.705505,394.081757 
	C777.800903,394.050812 777.896240,394.019897 778.303589,393.869812 
M827.564209,332.085083 
	C827.109192,332.780457 826.718689,333.529633 826.189880,334.163391 
	C812.372253,350.725464 798.525635,367.263367 784.726868,383.841095 
	C782.747009,386.219696 780.985107,388.779755 779.122314,391.255798 
	C779.468506,391.561066 779.814758,391.866333 780.160950,392.171600 
	C781.823364,390.886536 783.536316,389.661316 785.140198,388.306915 
	C797.563354,377.816010 809.961792,367.295715 822.375427,356.793518 
	C831.623047,348.969849 841.032837,341.329041 850.078979,333.279236 
	C855.480530,328.472656 856.768799,321.703186 853.700806,318.339508 
	C850.286011,314.595734 843.616028,315.317535 838.092102,320.506958 
	C834.473816,323.906036 831.359924,327.841980 827.564209,332.085083 
z"/>
<path fill="#32323B" opacity="1.000000" stroke="none" 
	d="
M556.994263,791.981018 
	C546.231628,792.923340 535.483948,794.395508 524.703247,794.700867 
	C500.051025,795.398987 475.461182,794.497070 450.532684,788.870178 
	C451.487701,792.043945 452.337402,794.733093 453.105591,797.445312 
	C455.653015,806.439453 453.971039,810.573792 445.352448,813.978088 
	C413.875183,826.411194 381.697205,834.025391 347.442841,828.709534 
	C333.480377,826.542786 319.336670,825.503723 305.256378,824.149719 
	C295.021606,823.165649 286.138885,819.409973 279.657074,811.365540 
	C274.573730,805.056641 269.998566,798.307922 265.597595,791.496155 
	C264.064728,789.123657 262.788574,788.282043 259.881531,788.186707 
	C245.277893,787.708008 230.635941,787.335876 216.112381,785.879822 
	C207.563232,785.022827 200.112991,780.542236 193.789703,774.024292 
	C185.162323,762.149292 186.599350,748.983215 188.333588,735.383545 
	C189.884430,735.306885 190.979370,735.678650 192.067078,736.070435 
	C206.004730,741.091003 220.125610,744.152771 235.007996,740.448425 
	C235.396591,741.755371 235.688812,742.709167 235.989517,743.660400 
	C239.544556,754.905884 250.706833,758.082764 258.960419,749.746765 
	C262.621857,746.048828 265.277069,741.262085 267.956207,736.714600 
	C269.962067,733.309998 271.275360,729.497437 273.276337,725.893188 
	C293.422119,718.168884 312.479218,708.966919 331.172943,698.555847 
	C322.151306,684.891357 309.351013,677.033142 295.906189,669.614014 
	C296.035858,668.482910 296.150879,667.730652 296.265869,666.978455 
	C303.496002,669.864197 310.730621,672.738831 317.950500,675.649963 
	C318.847717,676.011658 319.666840,676.567200 321.151794,677.238281 
	C324.510529,679.854980 327.287476,682.214661 329.960083,684.687073 
	C338.962524,693.015137 346.936310,701.981812 347.824249,715.056396 
	C343.155396,715.778748 338.885254,716.278992 334.667206,717.060547 
	C321.324249,719.533020 308.353882,723.070190 296.678284,731.000854 
	C295.530457,731.650635 294.678986,732.209290 293.488098,732.828979 
	C285.361237,739.031677 277.134674,744.709045 269.957611,751.496155 
	C265.910736,755.323303 262.665039,760.632324 260.703766,765.887817 
	C257.402618,774.733887 262.634705,780.622864 272.379700,779.764526 
	C277.458435,780.244324 282.170166,780.192749 286.672638,781.138000 
	C293.471558,782.565430 300.026642,785.330017 306.861328,786.372070 
	C318.523895,788.150208 327.149323,794.001099 333.728119,803.492126 
	C337.526031,808.971375 342.951660,812.241943 349.491516,812.936279 
	C357.069855,813.740967 364.718231,814.167725 372.339813,814.218750 
	C384.347809,814.299255 388.380310,811.178772 392.669922,799.790955 
	C397.701538,786.433228 402.869537,773.126770 407.877563,759.760315 
	C408.858704,757.141663 409.847870,754.381714 410.030426,751.633545 
	C410.756927,740.698669 403.432251,735.003967 395.137726,729.629883 
	C387.538849,725.886841 380.109619,722.497131 372.758118,718.946411 
	C370.516266,717.863586 368.488434,716.337585 366.718903,714.946838 
	C367.871948,714.666077 368.689484,714.209473 369.462341,714.275391 
	C390.734955,716.092285 409.962494,722.450745 424.665497,739.015198 
	C426.007568,740.527222 428.129944,741.346741 429.701630,742.646301 
	C430.330780,744.208008 431.148254,745.611267 431.979340,747.389160 
	C436.362579,757.578857 440.654938,767.429932 445.196381,777.164734 
	C445.786224,778.429138 447.660614,779.094238 448.982300,780.391296 
	C451.048706,786.894592 455.807800,788.811951 461.725830,789.061768 
	C464.689209,789.186707 467.659302,789.400757 470.599365,789.782593 
	C477.849518,790.724304 485.067230,792.468750 492.328613,792.647644 
	C504.656219,792.951355 517.007690,792.312622 529.348572,792.041870 
	C534.888794,791.920288 540.426880,791.643127 545.967163,791.602966 
	C549.641724,791.576294 553.318481,791.844666 556.994263,791.981018 
z"/>
<path fill="#32333C" opacity="1.000000" stroke="none" 
	d="
M690.000854,827.811340 
	C689.568604,827.917908 689.136414,828.024475 688.185608,827.845093 
	C686.778381,827.987122 685.889709,828.415222 685.001038,828.843262 
	C684.567322,828.943237 684.133667,829.043152 683.113403,828.814087 
	C679.018311,829.271423 675.509644,830.057678 672.001038,830.843994 
	C671.253784,830.940796 670.506592,831.037598 669.093506,830.778625 
	C660.650940,828.481567 651.992065,832.751709 644.724792,827.069092 
	C644.417297,826.828552 643.723694,826.921021 643.268005,827.055298 
	C638.832153,828.362610 634.408630,829.712036 629.981567,831.049316 
	C628.914917,831.044800 627.848206,831.040283 626.302246,830.583374 
	C622.232422,829.168396 618.690002,825.640991 615.000916,829.927856 
	C607.793152,829.244812 600.527771,828.920654 593.394165,827.775574 
	C586.551697,826.677246 582.073792,822.143372 579.673767,815.496704 
	C582.736267,815.188599 585.574402,815.564575 588.299072,815.165588 
	C598.913330,813.611328 609.461914,811.588989 620.092346,810.170959 
	C629.129089,808.965454 631.358276,806.286743 629.656921,797.397034 
	C628.353577,790.587036 627.117859,783.764099 625.893799,776.503906 
	C626.199280,767.457764 627.524963,759.179626 633.648132,752.305786 
	C639.173584,752.925049 644.277954,753.479797 649.382385,754.034607 
	C649.345520,754.565247 649.308716,755.095947 649.271851,755.626648 
	C648.050415,755.843933 646.822937,756.031738 645.608521,756.283081 
	C633.482971,758.792664 629.421692,767.567200 635.612000,778.440430 
	C637.220703,781.266113 639.371033,784.106445 641.964050,785.986023 
	C648.784485,790.929993 655.985413,795.348938 663.253662,800.243164 
	C669.992004,802.694641 676.383057,805.512756 683.070496,806.869568 
	C688.647156,808.000977 690.894470,805.637695 691.423462,799.830078 
	C691.688721,796.918030 691.107849,793.928955 691.336792,790.879700 
	C693.402222,791.014587 695.051514,791.184082 696.676453,791.485596 
	C701.451233,792.371521 702.814453,791.073120 701.898682,786.289917 
	C701.652466,785.004028 701.334473,783.595642 700.601562,782.560547 
	C694.500793,773.943481 688.295105,765.400757 681.980225,756.533936 
	C677.437012,750.144348 673.034668,744.056396 668.665405,737.543945 
	C668.802307,731.561829 668.906311,726.004150 669.067871,720.169678 
	C669.961121,719.585205 670.796814,719.277405 671.859009,719.265869 
	C673.432312,722.775146 674.470154,726.166626 676.198730,729.159119 
	C678.745361,733.567871 681.663940,737.779602 684.657654,741.905762 
	C686.513062,744.463074 688.617249,744.509827 691.385071,742.447754 
	C698.675232,737.016479 703.225525,729.567444 707.939819,722.062378 
	C715.453064,710.101440 722.974731,698.091858 731.409973,686.787170 
	C735.561340,681.223694 741.768250,677.193970 747.142090,672.944092 
	C746.733704,677.898804 746.228210,682.379456 745.655273,687.457886 
	C760.025452,680.571716 775.087891,678.502686 790.477966,678.044739 
	C795.528442,677.894470 795.759277,677.422913 793.808716,672.355042 
	C818.899780,678.541443 831.593445,693.398743 835.928894,721.565247 
	C837.906921,734.416077 839.613403,747.309509 837.374512,760.259521 
	C836.716125,764.067688 834.622009,767.627686 833.089722,771.643188 
	C822.979919,783.169495 809.680298,787.431458 795.462830,787.817017 
	C771.333801,788.471313 747.173035,788.008789 723.026245,787.893188 
	C719.575195,787.876709 716.127441,787.175354 712.281860,786.746826 
	C714.796265,795.444031 719.892273,803.821777 715.483582,812.409546 
	C713.307617,816.648132 708.377441,819.472778 704.138428,822.719299 
	C699.055847,824.271362 694.528381,826.041382 690.000854,827.811340 
M788.948914,772.127197 
	C800.706177,763.440796 812.840271,755.210632 824.093933,745.914429 
	C832.179138,739.235413 833.581238,731.150879 829.557800,722.583191 
	C825.333191,713.587402 820.583435,704.838257 815.954651,695.281677 
	C813.598145,689.578308 809.170105,685.487793 803.302612,685.299866 
	C791.549805,684.923401 779.577209,684.578857 768.026123,686.362854 
	C751.271606,688.950378 738.594299,702.961731 736.311768,718.666382 
	C734.885132,728.482483 733.041748,738.252686 732.043457,748.110168 
	C731.544983,753.031189 732.523254,758.101685 733.032532,763.839844 
	C735.350708,764.440857 737.927246,765.985413 739.930481,765.436646 
	C743.535767,764.449158 747.006470,762.521240 750.159668,760.424255 
	C757.080139,755.821716 763.577271,750.567200 770.599854,746.138000 
	C778.512390,741.147583 786.962097,737.131104 796.623535,736.944092 
	C802.831482,736.823914 804.969604,739.476746 803.198242,745.316895 
	C802.146057,748.785767 800.841492,752.300598 798.955688,755.367676 
	C795.493103,760.999329 791.516968,766.315247 787.335022,772.020691 
	C787.383484,772.279358 787.431885,772.537964 787.480286,772.796631 
	C787.740112,772.620789 787.999878,772.444946 788.948914,772.127197 
z"/>
<path fill="#7DB7C1" opacity="1.000000" stroke="none" 
	d="
M796.917358,428.969238 
	C803.054199,454.936737 804.474548,481.339539 802.744751,507.804077 
	C799.609985,555.761536 785.305847,600.347534 760.090942,641.323730 
	C755.475647,648.824036 750.325989,655.995544 744.822815,663.644592 
	C734.896667,664.627563 725.575256,665.378296 716.239624,665.841003 
	C714.841858,665.910217 713.377136,664.629639 711.964539,663.611572 
	C733.519897,623.628418 743.226440,581.122864 743.032715,535.750000 
	C742.733215,532.545105 742.371643,529.778198 741.996704,526.638000 
	C739.938232,518.821167 734.791260,513.769226 728.688904,509.656097 
	C723.119690,505.902313 717.269409,502.565552 711.765991,498.766479 
	C727.689636,485.623596 743.386230,472.754150 759.092468,459.896545 
	C771.694641,449.579987 784.308594,439.277802 796.917358,428.969238 
z"/>
<path fill="#1E1A1F" opacity="1.000000" stroke="none" 
	d="
M797.090942,428.677795 
	C784.308594,439.277802 771.694641,449.579987 759.092468,459.896545 
	C743.386230,472.754150 727.689636,485.623596 711.504700,498.888672 
	C709.249146,500.848297 707.477844,502.407227 705.377441,504.006348 
	C700.323364,507.860901 695.598389,511.675232 690.618591,515.695251 
	C692.379883,517.235657 693.775635,518.360962 695.063293,519.598633 
	C702.046875,526.310791 702.013916,534.267639 694.127991,539.891479 
	C689.251343,543.369263 683.345520,545.403870 677.570068,547.955566 
	C673.352051,546.077087 669.414001,544.434631 665.594727,542.551147 
	C662.095642,540.825623 658.873413,540.617798 654.888977,541.589661 
	C647.738281,543.333740 640.299988,543.898987 632.981873,544.956848 
	C636.911804,541.260986 640.626892,537.299988 644.806946,533.912842 
	C669.938599,513.548401 695.225281,493.375366 720.367554,473.023895 
	C752.343506,447.140900 784.326111,421.264587 816.121643,395.161133 
	C835.483093,379.265808 854.886658,363.379944 873.492981,346.625458 
	C881.957947,339.002930 887.155273,328.711884 887.069702,316.571045 
	C887.020813,309.643555 885.429138,303.437897 880.191101,298.519958 
	C879.365479,297.744781 878.868652,296.619385 878.098633,295.339233 
	C887.672852,297.539825 897.120422,309.101929 898.071777,319.851379 
	C899.670654,337.917206 890.598450,351.118591 877.803772,362.136932 
	C863.059204,374.834381 847.836914,386.977844 832.796204,399.330353 
	C820.972839,409.040558 809.109924,418.702759 797.090942,428.677795 
z"/>
<path fill="#A7ABB0" opacity="1.000000" stroke="none" 
	d="
M296.010895,666.682617 
	C296.150879,667.730652 296.035858,668.482910 295.540710,669.681763 
	C291.427734,675.592224 292.847992,681.576721 293.694977,687.369141 
	C294.732574,694.465149 293.763733,700.212769 287.181885,704.673523 
	C279.754242,709.707397 274.233063,716.497192 272.897034,725.866516 
	C271.275360,729.497437 269.962067,733.309998 267.956207,736.714600 
	C265.277069,741.262085 262.621857,746.048828 258.960419,749.746765 
	C250.706833,758.082764 239.544556,754.905884 235.989517,743.660400 
	C235.688812,742.709167 235.396591,741.755371 235.034973,739.995422 
	C234.902649,724.408752 241.312424,712.373474 250.843414,701.647522 
	C256.277161,695.532471 259.972931,688.541809 262.076080,679.754639 
	C257.605255,680.633057 253.935272,681.354187 249.852646,682.046143 
	C244.955338,682.002991 240.470673,681.988892 236.190369,681.693848 
	C239.715836,679.908142 243.036957,678.403381 247.076324,676.573242 
	C235.662613,674.003479 225.597763,680.226685 215.583115,688.065674 
	C212.318726,690.620972 209.813782,694.146423 206.770050,697.465027 
	C205.046097,699.443054 203.513550,701.184204 201.688248,703.087524 
	C198.931793,705.167358 196.468094,707.085205 194.004395,709.002991 
	C197.666351,692.558472 208.457703,682.067627 223.071808,675.218323 
	C239.665985,667.440857 257.385956,664.163269 275.931000,663.244629 
	C281.023224,663.601257 285.831451,664.218750 290.615265,664.987976 
	C292.358704,665.268372 294.044067,665.909912 296.010895,666.682617 
z"/>
<path fill="#767A7E" opacity="1.000000" stroke="none" 
	d="
M193.741913,709.256348 
	C196.468094,707.085205 198.931793,705.167358 201.954224,703.294800 
	C202.657791,704.205322 202.802643,705.070740 202.928711,706.192139 
	C202.924606,706.618591 202.939316,706.789124 202.710052,707.032471 
	C202.297714,707.388794 202.129333,707.672302 201.672272,707.968018 
	C200.695663,708.093323 200.007721,708.206482 199.319794,708.319641 
	C199.788635,708.769226 200.257477,709.218811 200.726334,709.668457 
	C201.165573,709.125244 201.604828,708.582031 202.288361,707.966858 
	C202.702484,707.612366 202.872314,707.329834 203.361069,707.039429 
	C204.207565,706.693787 204.735138,706.356018 205.417938,705.953369 
	C205.770676,705.769348 205.907013,705.600708 206.316315,705.250244 
	C220.133301,695.439148 234.526398,687.483521 250.265305,682.075256 
	C253.935272,681.354187 257.605255,680.633057 262.076080,679.754639 
	C259.972931,688.541809 256.277161,695.532471 250.843414,701.647522 
	C241.312424,712.373474 234.902649,724.408752 234.942551,739.641113 
	C220.125610,744.152771 206.004730,741.091003 192.067078,736.070435 
	C190.979370,735.678650 189.884430,735.306885 188.411804,734.971436 
	C189.847000,726.514587 191.663223,718.012207 193.741913,709.256348 
M198.399933,710.944214 
	C198.404495,710.761414 198.409058,710.578674 198.413589,710.395874 
	C198.269821,710.592529 198.126053,710.789185 197.514374,711.170776 
	C197.349655,711.456421 197.184937,711.742126 196.610077,712.270020 
	C196.634293,712.611816 196.658524,712.953552 196.682755,713.295349 
	C196.778214,712.855164 196.873672,712.415039 197.484360,711.878296 
	C197.662689,711.593140 197.841019,711.307922 198.399933,710.944214 
M214.414307,706.804199 
	C208.581985,710.013672 202.749664,713.223145 196.917358,716.432556 
	C197.146179,716.812317 197.375015,717.192078 197.603851,717.571838 
	C212.832993,713.144226 228.062134,708.716614 243.291275,704.288940 
	C233.549088,702.516174 224.123230,702.502747 214.414307,706.804199 
M250.475220,688.045288 
	C248.696533,688.755859 246.917862,689.466370 245.139191,690.176880 
	C245.275024,690.766785 245.410843,691.356689 245.546677,691.946594 
	C247.400406,691.946594 249.286255,692.148926 251.094467,691.861877 
	C252.008820,691.716797 252.782761,690.686951 253.620163,690.057068 
	C252.826721,689.393433 252.033279,688.729797 250.475220,688.045288 
z"/>
<path fill="#A4A8AD" opacity="1.000000" stroke="none" 
	d="
M711.943420,663.973511 
	C713.377136,664.629639 714.841858,665.910217 716.239624,665.841003 
	C725.575256,665.378296 734.896667,664.627563 744.708130,663.948853 
	C761.703918,663.748962 777.671387,666.829895 793.554871,672.147095 
	C795.759277,677.422913 795.528442,677.894470 790.477966,678.044739 
	C775.087891,678.502686 760.025452,680.571716 745.655273,687.457886 
	C746.228210,682.379456 746.733704,677.898804 747.014893,672.607239 
	C745.041931,671.191956 743.301941,670.094604 741.543213,670.063660 
	C730.576050,669.870300 719.604675,669.915588 708.735352,669.547119 
	C709.871765,667.466064 710.907593,665.719788 711.943420,663.973511 
z"/>
<path fill="#A56948" opacity="1.000000" stroke="none" 
	d="
M677.901733,548.086426 
	C683.345520,545.403870 689.251343,543.369263 694.127991,539.891479 
	C702.013916,534.267639 702.046875,526.310791 695.063293,519.598633 
	C693.775635,518.360962 692.379883,517.235657 690.618591,515.695251 
	C695.598389,511.675232 700.323364,507.860901 705.792236,504.008942 
	C707.185730,504.082825 707.857300,504.123505 708.481873,504.316254 
	C721.960571,508.475922 733.222168,515.918213 742.010071,527.011292 
	C742.371643,529.778198 742.733215,532.545105 742.749878,535.923401 
	C736.604065,549.932556 725.489807,557.664856 712.768860,564.048706 
	C711.963867,564.406494 711.480957,564.742920 711.000977,565.044861 
	C711.004028,565.010376 711.069702,565.032471 710.665894,564.999634 
	C704.220947,566.685181 698.182434,568.412720 692.138245,570.120178 
	C653.557068,581.019470 613.987000,585.957275 574.170044,588.818604 
	C549.864929,590.565186 525.453247,590.828857 500.739563,591.537964 
	C476.388153,589.888062 452.367920,588.709656 428.392822,586.925049 
	C416.190216,586.016785 404.046967,584.172791 391.917786,582.461792 
	C382.911407,581.191406 373.970917,579.454285 364.666260,577.750366 
	C362.086945,577.032349 359.836395,576.512878 357.598969,575.941895 
	C337.642090,570.849121 317.848724,565.193787 300.134644,554.295227 
	C291.841400,549.192932 284.790466,542.666870 283.315857,532.154663 
	C283.331604,531.280823 283.347321,530.406982 283.891968,529.074280 
	C284.609650,527.393860 284.798401,526.172241 284.987183,524.950684 
	C284.987183,524.950684 285.002411,525.005066 285.299805,524.907166 
	C294.239868,515.407349 305.517822,510.612885 317.320251,506.818359 
	C351.128845,495.948822 386.125031,491.525726 421.265076,488.097626 
	C435.943176,486.665710 450.689514,485.494751 465.425171,485.190552 
	C489.837280,484.686615 514.269348,484.711609 538.686340,485.026703 
	C556.614929,485.258057 574.540344,486.163361 592.452698,487.057159 
	C601.544678,487.510834 610.627686,488.405823 619.673706,489.455200 
	C631.505188,490.827667 643.296021,492.550201 655.104370,494.122162 
	C652.538940,496.817413 649.973511,499.512665 646.670654,502.233582 
	C644.776184,502.123840 643.601135,502.074982 642.464478,501.840393 
	C606.515320,494.421051 570.065491,491.901550 533.482178,491.053802 
	C500.021423,490.278442 466.545258,490.845337 433.316284,495.076111 
	C410.289856,498.007935 387.361389,501.922455 364.551483,506.253082 
	C352.824219,508.479584 341.309601,512.315125 331.388977,519.451782 
	C323.153870,525.375977 322.525604,533.992554 330.764282,539.687500 
	C337.172913,544.117554 344.872101,546.680664 352.171936,550.391724 
	C375.693970,558.160461 399.594971,562.850952 424.335754,565.291687 
	C428.598724,566.004822 432.505188,566.651550 436.438141,566.957825 
	C448.191193,567.873108 459.943146,568.941956 471.717041,569.414185 
	C485.472687,569.965942 499.251038,569.951660 513.422485,570.267334 
	C516.321533,570.437866 518.829651,570.726074 521.311951,570.579285 
	C547.235168,569.045593 573.174988,567.712402 599.063660,565.718750 
	C608.775757,564.970886 618.366089,562.643066 628.354004,561.059937 
	C629.143127,560.996033 629.590149,560.907776 630.373413,560.864380 
	C631.546265,560.637146 632.382751,560.365112 633.628662,560.105469 
	C637.948669,559.379028 641.946899,558.943054 645.753479,557.843750 
	C656.511597,554.736877 667.191223,551.358093 677.901733,548.086426 
z"/>
<path fill="#93C4CA" opacity="1.000000" stroke="none" 
	d="
M311.444916,502.225403 
	C307.920013,442.609253 323.487823,389.011353 361.801697,342.598969 
	C391.353973,306.800079 428.434662,282.797913 473.638428,271.783875 
	C481.816528,269.791229 490.267792,268.919678 498.790436,268.163879 
	C498.640137,269.353302 498.367645,269.977844 497.933716,270.455780 
	C473.204376,297.691284 452.885071,327.770477 438.649078,361.733337 
	C437.429626,361.042877 435.910065,359.874908 435.552612,360.160675 
	C424.441559,369.043396 413.070160,377.654846 402.534027,387.186951 
	C391.973206,396.741425 381.990082,406.982086 372.281647,417.413300 
	C366.340118,423.797211 361.392670,431.106384 355.697266,438.151855 
	C344.613770,455.165375 333.754639,471.978699 323.114532,488.929474 
	C320.979889,492.330200 319.678345,496.253937 317.693970,500.127777 
	C315.411804,500.954498 313.428375,501.589966 311.444916,502.225403 
z"/>
<path fill="#9B4F26" opacity="1.000000" stroke="none" 
	d="
M348.246796,714.963135 
	C346.936310,701.981812 338.962524,693.015137 329.960083,684.687073 
	C327.287476,682.214661 324.510529,679.854980 321.522614,677.290527 
	C320.830994,675.717224 320.398163,674.296875 320.147217,672.314758 
	C320.329102,670.369568 320.329102,668.986206 320.329102,665.860046 
	C326.953491,669.908325 332.592773,673.448608 338.324432,676.832336 
	C344.729309,680.613464 350.952728,684.972412 359.185150,682.154785 
	C360.846649,681.586121 363.314575,682.080078 364.949554,682.950378 
	C372.191406,686.805054 380.771851,687.941162 386.935638,694.111450 
	C388.323822,695.501099 391.211731,695.940063 393.383392,695.880005 
	C397.317291,695.771301 401.251984,695.077515 405.150757,694.417725 
	C419.574036,691.976990 433.552734,688.038513 446.885040,681.916687 
	C459.732880,676.017334 472.051147,669.332703 482.303528,658.838745 
	C491.310883,654.464661 500.006134,650.244568 509.825928,645.478699 
	C501.939453,640.958801 495.183868,636.881836 488.221130,633.196167 
	C485.378876,631.691711 482.087799,631.035095 478.833221,629.676514 
	C464.286621,624.222351 449.949829,618.961853 435.511414,613.996948 
	C428.095093,611.446716 420.497498,609.423828 413.403687,607.116638 
	C434.905487,609.716858 456.069885,611.830139 477.042419,615.153931 
	C499.604767,618.729797 519.598267,628.136902 535.537659,645.017456 
	C548.392151,658.630859 551.340698,676.421875 542.593567,692.881409 
	C528.129395,720.098633 503.795197,733.196411 474.465240,737.861023 
	C459.734131,740.203796 444.756226,740.994934 429.889954,742.487793 
	C428.129944,741.346741 426.007568,740.527222 424.665497,739.015198 
	C409.962494,722.450745 390.734955,716.092285 369.462341,714.275391 
	C368.689484,714.209473 367.871948,714.666077 366.229584,714.854065 
	C359.671570,714.873718 353.959167,714.918457 348.246796,714.963135 
z"/>
<path fill="#A95528" opacity="1.000000" stroke="none" 
	d="
M412.981812,607.162659 
	C420.497498,609.423828 428.095093,611.446716 435.511414,613.996948 
	C449.949829,618.961853 464.286621,624.222351 478.592102,629.955627 
	C472.491821,632.371948 466.478668,634.239746 460.435852,636.006042 
	C431.556915,644.447205 402.400116,651.155396 371.723511,649.713379 
	C359.770050,647.895081 348.353943,645.443420 338.443604,638.655029 
	C335.061340,636.338318 331.674164,635.785400 328.410950,637.847290 
	C322.193787,641.775696 316.200562,646.069946 310.259705,650.411194 
	C309.422607,651.022949 309.403748,652.754456 309.006134,653.967651 
	C304.719208,644.292908 299.705261,634.866821 296.294495,624.892456 
	C288.863434,603.161316 283.708344,580.885986 284.247009,557.445679 
	C285.935974,559.243286 287.016876,561.592957 288.749786,563.268188 
	C297.581299,571.805664 308.203583,577.324097 319.935486,581.408203 
	C322.406311,582.890808 324.757355,584.029419 327.340942,585.430908 
	C328.734802,585.779907 329.896088,585.866211 331.021637,585.936401 
	C330.985901,585.920227 331.015900,585.847839 331.077698,586.207947 
	C334.476807,588.007812 337.732422,589.689636 341.164642,590.848328 
	C364.540985,598.739929 388.670715,603.360229 412.981812,607.162659 
z"/>
<path fill="#8DC1C9" opacity="1.000000" stroke="none" 
	d="
M560.442139,270.866150 
	C565.789368,273.810089 570.833008,276.787506 575.827454,279.845123 
	C578.167908,281.277985 580.413757,282.865479 582.418091,284.690979 
	C576.036255,283.856598 572.423462,286.654144 570.331299,292.199432 
	C569.702881,293.864990 568.386902,295.257843 567.522339,296.849701 
	C561.281006,308.341522 552.008057,318.160767 548.532288,331.195129 
	C548.427490,331.588043 547.438538,331.745178 546.838379,331.597565 
	C546.604858,328.778259 546.394714,326.373627 546.319031,323.870239 
	C546.612122,323.422729 546.496826,323.170563 546.017578,322.633331 
	C544.327759,317.193268 542.727783,312.134888 541.127747,307.076538 
	C540.592468,307.185211 540.057129,307.293884 539.521790,307.402557 
	C542.306824,317.288849 543.119080,327.154022 539.529541,336.820740 
	C537.937805,336.930084 536.033936,336.745789 535.472107,337.526825 
	C529.217468,346.221954 523.565491,355.375214 516.978577,363.801147 
	C505.887360,377.988953 494.344849,391.829712 482.793762,405.650665 
	C471.237640,419.477600 459.458496,433.118683 447.703552,446.777954 
	C446.849792,447.769989 445.397705,448.247131 444.148682,448.502808 
	C443.458405,431.269989 443.521454,414.539917 447.512817,398.016479 
	C449.468933,396.939941 451.362823,396.145630 452.635956,394.774750 
	C468.394287,377.806396 484.194794,360.873260 499.676117,343.653870 
	C504.587463,338.191132 508.586121,331.907806 513.305420,325.851990 
	C517.411682,321.124207 521.148254,316.487030 525.031921,311.976410 
	C533.318787,302.351776 540.055725,291.312561 551.089478,284.189941 
	C554.540161,281.962433 555.626221,278.221344 554.542847,274.048126 
	C554.213684,272.780304 554.168701,271.438751 553.993591,270.130951 
	C556.035156,270.398132 558.076721,270.665314 560.442139,270.866150 
z"/>
<path fill="#AC5728" opacity="1.000000" stroke="none" 
	d="
M309.036499,654.328796 
	C309.403748,652.754456 309.422607,651.022949 310.259705,650.411194 
	C316.200562,646.069946 322.193787,641.775696 328.410950,637.847290 
	C331.674164,635.785400 335.061340,636.338318 338.443604,638.655029 
	C348.353943,645.443420 359.770050,647.895081 371.781036,650.067627 
	C373.311188,651.490845 374.405823,652.609131 375.716705,652.997742 
	C387.892120,656.606995 399.916534,661.837463 412.353302,663.177551 
	C428.651215,664.933716 445.300232,664.024292 461.763000,663.371887 
	C468.553009,663.102722 475.251404,660.522034 481.991455,658.992676 
	C472.051147,669.332703 459.732880,676.017334 446.885040,681.916687 
	C433.552734,688.038513 419.574036,691.976990 405.150757,694.417725 
	C401.251984,695.077515 397.317291,695.771301 393.383392,695.880005 
	C391.211731,695.940063 388.323822,695.501099 386.935638,694.111450 
	C380.771851,687.941162 372.191406,686.805054 364.949554,682.950378 
	C363.314575,682.080078 360.846649,681.586121 359.185150,682.154785 
	C350.952728,684.972412 344.729309,680.613464 338.324432,676.832336 
	C332.592773,673.448608 326.953491,669.908325 320.329102,665.860046 
	C320.329102,668.986206 320.329102,670.369568 320.048828,671.960938 
	C316.201324,666.342590 312.634125,660.516235 309.036499,654.328796 
z"/>
<path fill="#FBFEFE" opacity="1.000000" stroke="none" 
	d="
M447.162140,398.030792 
	C443.521454,414.539917 443.458405,431.269989 444.093506,448.917572 
	C445.795471,458.949066 447.477478,468.104889 448.792236,477.459961 
	C440.626648,478.145813 432.828369,478.632416 425.031891,478.693024 
	C424.680603,475.845093 424.327484,473.423157 423.998779,470.563385 
	C423.385620,464.743561 422.748108,459.361572 422.074646,453.515350 
	C422.720154,442.020111 423.401550,430.989075 424.168152,419.571869 
	C424.502197,418.060944 424.834991,416.947449 424.987213,415.809814 
	C427.464691,397.293243 432.213898,379.365234 438.890656,361.933533 
	C452.885071,327.770477 473.204376,297.691284 497.933716,270.455780 
	C498.367645,269.977844 498.640137,269.353302 498.993469,268.457886 
	C504.894775,262.317963 510.771942,256.498291 516.690491,250.721008 
	C526.889282,240.765732 537.113770,230.836853 547.763916,221.243530 
	C538.956604,236.937561 528.488342,251.442947 516.711548,265.815857 
	C510.260376,274.221649 504.253326,282.163513 498.330444,290.167694 
	C486.468994,306.197388 475.282257,322.651672 466.600403,341.056488 
	C457.248627,359.293274 450.885651,378.215759 447.162140,398.030792 
z"/>
<path fill="#D99362" opacity="1.000000" stroke="none" 
	d="
M425.030060,479.119019 
	C432.828369,478.632416 440.626648,478.145813 449.247040,477.440430 
	C461.405609,476.732758 472.742126,476.243866 484.388000,475.826630 
	C485.113647,475.848755 485.529938,475.799194 486.411743,475.826599 
	C492.611725,475.804871 498.346130,475.706177 504.537170,475.682709 
	C516.320312,475.778931 527.646851,475.799927 539.429443,475.897583 
	C549.827637,476.322754 559.769653,476.671265 570.168701,477.080872 
	C584.097168,478.191437 597.568726,479.240875 611.379639,480.492737 
	C628.077026,483.201935 644.434937,485.708679 660.792847,488.215393 
	C659.083191,490.075470 657.373474,491.935516 655.384033,493.958862 
	C643.296021,492.550201 631.505188,490.827667 619.673706,489.455200 
	C610.627686,488.405823 601.544678,487.510834 592.452698,487.057159 
	C574.540344,486.163361 556.614929,485.258057 538.686340,485.026703 
	C514.269348,484.711609 489.837280,484.686615 465.425171,485.190552 
	C450.689514,485.494751 435.943176,486.665710 421.265076,488.097626 
	C386.125031,491.525726 351.128845,495.948822 317.320251,506.818359 
	C305.517822,510.612885 294.239868,515.407349 285.271606,524.906494 
	C287.086487,517.836182 292.744537,513.731934 298.498779,509.867432 
	C302.457092,507.209106 306.772156,505.082001 311.186340,502.471436 
	C313.428375,501.589966 315.411804,500.954498 318.068726,500.111816 
	C321.551056,498.953827 324.309204,497.798981 327.177185,497.086212 
	C343.144073,493.117981 359.137634,489.256958 375.554688,485.315613 
	C386.325287,483.846313 396.663269,482.420624 407.444031,481.026428 
	C413.601227,480.411621 419.315643,479.765350 425.030060,479.119019 
z"/>
<path fill="#93C4CA" opacity="1.000000" stroke="none" 
	d="
M466.854095,340.817383 
	C475.282257,322.651672 486.468994,306.197388 498.330444,290.167694 
	C504.253326,282.163513 510.260376,274.221649 516.520874,266.096222 
	C518.460876,266.332214 520.090210,266.920380 521.760925,267.082825 
	C532.225952,268.100372 542.700256,269.022980 553.582520,270.053986 
	C554.168701,271.438751 554.213684,272.780304 554.542847,274.048126 
	C555.626221,278.221344 554.540161,281.962433 551.089478,284.189941 
	C540.055725,291.312561 533.318787,302.351776 525.031921,311.976410 
	C521.148254,316.487030 517.411682,321.124207 513.026855,325.602966 
	C512.148743,324.062408 511.993164,322.576141 511.532776,321.191132 
	C508.697754,312.662354 506.691589,311.891174 499.517334,317.332886 
	C489.563202,324.883148 479.865356,332.770630 469.979645,340.412689 
	C469.262238,340.967285 467.910767,340.701660 466.854095,340.817383 
z"/>
<path fill="#E2AE83" opacity="1.000000" stroke="none" 
	d="
M319.815704,581.064209 
	C308.203583,577.324097 297.581299,571.805664 288.749786,563.268188 
	C287.016876,561.592957 285.935974,559.243286 284.290039,556.963135 
	C283.758698,548.835938 283.491638,540.950195 283.270203,532.609619 
	C284.790466,542.666870 291.841400,549.192932 300.134644,554.295227 
	C317.848724,565.193787 337.642090,570.849121 357.598969,575.941895 
	C359.836395,576.512878 362.086945,577.032349 364.703369,578.122314 
	C367.493347,584.446655 373.536682,583.856567 378.019623,585.961182 
	C383.294098,588.437561 388.703217,590.627014 394.053955,592.940857 
	C393.842804,593.335815 393.631622,593.730835 393.420441,594.125793 
	C387.104523,594.125793 380.788574,594.125793 374.361877,594.202271 
	C374.251129,594.278748 374.035004,594.118225 373.765747,593.804382 
	C372.120819,593.391418 370.745148,593.292358 369.168091,593.351562 
	C368.656952,593.389526 368.347168,593.269287 367.797119,592.838318 
	C364.169342,592.068909 360.781860,591.610168 357.320190,591.222168 
	C357.246002,591.292847 357.059967,591.206787 356.805695,590.879150 
	C355.176544,590.414307 353.801697,590.277100 352.327271,590.204102 
	C352.227753,590.268250 352.037018,590.127869 351.779785,589.816833 
	C350.177826,589.385498 348.833038,589.265137 347.359680,589.197144 
	C347.231079,589.249451 347.014984,589.075073 346.757935,588.775146 
	C345.458984,588.377136 344.417114,588.279053 343.301636,588.239319 
	C343.227997,588.297668 343.059357,588.214844 342.836639,587.901611 
	C341.361908,587.433716 340.109894,587.279114 338.901306,587.108398 
	C338.944702,587.092285 338.944153,587.184875 338.745728,586.869629 
	C337.329193,586.399536 336.111053,586.244629 334.932068,586.068726 
	C334.971252,586.047668 334.957031,586.135437 334.767517,585.822632 
	C329.657257,584.027954 324.736481,582.546082 319.815704,581.064209 
z"/>
<path fill="#D99362" opacity="1.000000" stroke="none" 
	d="
M284.712402,525.189575 
	C284.798401,526.172241 284.609650,527.393860 284.099304,528.815002 
	C283.997711,527.819214 284.217682,526.623901 284.712402,525.189575 
z"/>
<path fill="#1F1A20" opacity="1.000000" stroke="none" 
	d="
M368.037415,593.149048 
	C368.347168,593.269287 368.656952,593.389526 369.462708,593.641541 
	C371.317505,593.888306 372.676239,594.003235 374.035004,594.118225 
	C374.035004,594.118225 374.251129,594.278748 374.705566,594.461182 
	C378.282745,595.101685 381.391113,595.744751 384.530518,595.988342 
	C409.066833,597.892700 433.586548,600.169495 458.157959,601.404297 
	C473.078247,602.154053 488.081268,601.257019 503.507385,601.180664 
	C525.857605,599.879456 547.775635,598.838318 569.631042,597.036560 
	C603.766663,594.222595 637.568054,588.926453 670.585022,579.751465 
	C684.378235,575.918518 697.592285,570.001770 711.069702,565.032471 
	C711.069702,565.032471 711.004028,565.010376 711.312866,565.032715 
	C712.111389,564.712524 712.601135,564.369873 713.090881,564.027283 
	C725.489807,557.664856 736.604065,549.932556 742.687744,536.361328 
	C743.226440,581.122864 733.519897,623.628418 711.964539,663.611572 
	C710.907593,665.719788 709.871765,667.466064 708.488403,669.758667 
	C697.190735,684.645020 686.226440,698.974304 675.308960,713.339172 
	C673.956055,715.119202 672.851929,717.088196 671.632507,718.969604 
	C670.796814,719.277405 669.961121,719.585205 668.742371,720.332092 
	C665.589722,723.902527 662.820251,727.033813 659.596558,730.235962 
	C649.560242,729.616150 640.585144,731.865112 631.603760,735.944458 
	C621.366150,740.960632 611.026428,745.196228 601.762085,751.114990 
	C588.157471,759.806824 580.876038,773.326965 576.968811,788.750488 
	C570.588684,789.839844 564.208557,790.929138 557.411377,791.999756 
	C553.318481,791.844666 549.641724,791.576294 545.967163,791.602966 
	C540.426880,791.643127 534.888794,791.920288 529.348572,792.041870 
	C517.007690,792.312622 504.656219,792.951355 492.328613,792.647644 
	C485.067230,792.468750 477.849518,790.724304 470.599365,789.782593 
	C467.659302,789.400757 464.689209,789.186707 461.725830,789.061768 
	C455.807800,788.811951 451.048706,786.894592 449.270691,780.098389 
	C462.756042,777.557800 476.125916,776.299072 489.200653,773.606812 
	C504.728424,770.409302 520.121948,766.391968 535.357117,761.981995 
	C556.204590,755.947449 573.090576,743.816528 586.217834,726.528381 
	C588.028992,724.143188 589.507202,721.505188 591.826416,717.923340 
	C589.522644,718.281616 588.742432,718.325012 588.006592,718.528687 
	C569.546814,723.639343 551.243103,729.429565 532.589905,733.690979 
	C516.362610,737.398010 499.802246,739.848999 483.277466,741.996155 
	C466.243774,744.209351 449.075256,745.384888 431.965729,747.014465 
	C431.148254,745.611267 430.330780,744.208008 429.701630,742.646301 
	C444.756226,740.994934 459.734131,740.203796 474.465240,737.861023 
	C503.795197,733.196411 528.129395,720.098633 542.593567,692.881409 
	C551.340698,676.421875 548.392151,658.630859 535.537659,645.017456 
	C519.598267,628.136902 499.604767,618.729797 477.042419,615.153931 
	C456.069885,611.830139 434.905487,609.716858 413.403687,607.116638 
	C388.670715,603.360229 364.540985,598.739929 341.164642,590.848328 
	C337.732422,589.689636 334.476807,588.007812 331.472961,586.153137 
	C332.856659,585.870605 333.906830,586.003052 334.957031,586.135437 
	C334.957031,586.135437 334.971252,586.047668 335.201416,586.304626 
	C336.602448,586.769348 337.773285,586.977112 338.944153,587.184875 
	C338.944153,587.184875 338.944702,587.092285 339.165039,587.370483 
	C340.610046,587.837402 341.834717,588.026123 343.059357,588.214844 
	C343.059357,588.214844 343.227997,588.297668 343.580200,588.518005 
	C344.959900,588.850586 345.987457,588.962830 347.014984,589.075073 
	C347.014984,589.075073 347.231079,589.249451 347.668518,589.456482 
	C349.416321,589.818298 350.726685,589.973083 352.037018,590.127869 
	C352.037018,590.127869 352.227753,590.268250 352.639465,590.472534 
	C354.387451,590.853516 355.723724,591.030151 357.059967,591.206787 
	C357.059967,591.206787 357.246002,591.292847 357.636047,591.506714 
	C361.363190,592.196777 364.700317,592.672913 368.037415,593.149048 
z"/>
<path fill="#B1B3B9" opacity="1.000000" stroke="none" 
	d="
M576.993713,789.198364 
	C580.876038,773.326965 588.157471,759.806824 601.762085,751.114990 
	C611.026428,745.196228 621.366150,740.960632 631.612366,736.318481 
	C632.867065,737.889343 633.849792,739.050903 634.566895,740.358154 
	C635.187500,741.489319 635.506531,742.785950 635.533081,744.024414 
	C620.193359,745.020874 607.645752,751.255615 597.025146,761.505615 
	C587.060730,771.122253 579.613708,782.108276 580.020996,796.716858 
	C580.332275,807.879028 585.465515,815.979004 598.828674,809.983154 
	C611.037537,804.505249 620.960632,797.164368 623.570496,782.938660 
	C623.949707,780.871460 625.073120,778.940796 625.852173,776.946960 
	C627.117859,783.764099 628.353577,790.587036 629.656921,797.397034 
	C631.358276,806.286743 629.129089,808.965454 620.092346,810.170959 
	C609.461914,811.588989 598.913330,813.611328 588.299072,815.165588 
	C585.574402,815.564575 582.736267,815.188599 579.561890,815.186523 
	C575.738281,806.914062 575.521484,798.352417 576.993713,789.198364 
z"/>
<path fill="#32323B" opacity="1.000000" stroke="none" 
	d="
M630.372559,831.166992 
	C634.408630,829.712036 638.832153,828.362610 643.268005,827.055298 
	C643.723694,826.921021 644.417297,826.828552 644.724792,827.069092 
	C651.992065,832.751709 660.650940,828.481567 668.719116,830.724365 
	C656.261536,831.112122 643.512512,831.198425 630.372559,831.166992 
z"/>
<path fill="#32323B" opacity="1.000000" stroke="none" 
	d="
M690.384644,827.822327 
	C694.528381,826.041382 699.055847,824.271362 703.793457,822.755249 
	C699.591858,824.617188 695.180115,826.225281 690.384644,827.822327 
z"/>
<path fill="#32323B" opacity="1.000000" stroke="none" 
	d="
M615.400146,830.026245 
	C618.690002,825.640991 622.232422,829.168396 625.910767,830.494019 
	C622.598877,830.612915 619.199097,830.368774 615.400146,830.026245 
z"/>
<path fill="#32323B" opacity="1.000000" stroke="none" 
	d="
M672.415405,830.883789 
	C675.509644,830.057678 679.018311,829.271423 682.779419,828.780701 
	C679.631165,829.692078 676.230469,830.307861 672.415405,830.883789 
z"/>
<path fill="#32323B" opacity="1.000000" stroke="none" 
	d="
M685.320801,828.877441 
	C685.889709,828.415222 686.778381,827.987122 687.851196,827.822021 
	C687.237061,828.360474 686.438782,828.636047 685.320801,828.877441 
z"/>
<path fill="#94C4CA" opacity="1.000000" stroke="none" 
	d="
M569.711731,477.019775 
	C559.769653,476.671265 549.827637,476.322754 539.428162,475.476257 
	C539.339966,462.863464 544.716553,452.468231 550.967529,442.661621 
	C561.864929,425.565491 573.592590,408.999634 584.554810,391.943237 
	C593.270874,378.381714 600.325684,363.995178 598.936279,347.197296 
	C597.732727,332.647430 590.096741,321.837891 577.966553,313.791199 
	C577.726807,313.619751 577.537598,313.637115 577.348450,313.654480 
	C577.557739,313.776581 577.767029,313.898712 577.991821,314.373047 
	C592.498474,332.927704 591.217590,352.022247 579.170044,370.232544 
	C568.196411,386.819580 555.666443,402.410187 543.340759,418.060547 
	C529.880371,435.151703 514.685913,451.031708 507.966095,472.500427 
	C507.725342,473.269653 505.994446,473.572449 504.846130,473.737000 
	C497.912415,457.286621 498.649170,440.891418 503.327789,424.543610 
	C507.912781,408.522858 516.331055,394.305084 525.834717,380.804047 
	C536.285583,365.957336 545.451538,350.692871 546.861755,332.012207 
	C547.438538,331.745178 548.427490,331.588043 548.532288,331.195129 
	C552.008057,318.160767 561.281006,308.341522 567.522339,296.849701 
	C568.386902,295.257843 569.702881,293.864990 570.331299,292.199432 
	C572.423462,286.654144 576.036255,283.856598 582.569336,284.997742 
	C586.128235,287.955780 589.349548,290.819244 592.357544,293.891602 
	C603.918701,305.700073 615.574646,317.423157 626.851807,329.498718 
	C631.552429,334.532074 635.392334,340.369232 639.906433,346.378845 
	C639.734375,348.675293 639.562805,350.572510 638.780518,352.170715 
	C631.425659,367.195892 624.834595,382.684845 616.325623,397.033264 
	C604.745911,416.559601 591.350037,435.001068 579.424133,454.334137 
	C575.152893,461.258301 572.890808,469.421875 569.711731,477.019775 
z"/>
<path fill="#94C4CA" opacity="1.000000" stroke="none" 
	d="
M661.080811,487.998505 
	C644.434937,485.708679 628.077026,483.201935 611.491577,480.103943 
	C612.082397,476.476105 612.607788,473.322357 613.767456,470.422272 
	C620.359497,453.936951 627.609253,437.696167 633.666870,421.020355 
	C641.234192,400.188232 647.862854,379.015167 654.896790,357.989319 
	C658.569336,362.274780 663.168823,366.068024 665.752075,370.932037 
	C676.235107,390.670258 683.294983,411.675262 687.034973,433.757233 
	C688.160339,440.401428 689.415894,447.023621 690.940063,453.885559 
	C681.301819,465.337341 671.335266,476.559448 661.080811,487.998505 
z"/>
<path fill="#FCFDFD" opacity="1.000000" stroke="none" 
	d="
M654.909973,357.563263 
	C647.862854,379.015167 641.234192,400.188232 633.666870,421.020355 
	C627.609253,437.696167 620.359497,453.936951 613.767456,470.422272 
	C612.607788,473.322357 612.082397,476.476105 611.152161,479.901489 
	C597.568726,479.240875 584.097168,478.191437 570.168701,477.080872 
	C572.890808,469.421875 575.152893,461.258301 579.424133,454.334137 
	C591.350037,435.001068 604.745911,416.559601 616.325623,397.033264 
	C624.834595,382.684845 631.425659,367.195892 638.780518,352.170715 
	C639.562805,350.572510 639.734375,348.675293 640.231689,346.527679 
	C647.079773,328.898895 647.829041,311.524292 640.623657,294.288300 
	C637.887451,287.743073 634.033569,281.665161 630.255676,274.559052 
	C631.830017,275.326965 633.081543,275.609253 633.870850,276.370697 
	C651.448181,293.328247 660.103577,313.674408 657.201172,338.350494 
	C656.464294,344.615387 655.683655,350.875122 654.909973,357.563263 
z"/>
<path fill="#1E191F" opacity="1.000000" stroke="none" 
	d="
M351.997711,550.073486 
	C344.872101,546.680664 337.172913,544.117554 330.764282,539.687500 
	C322.525604,533.992554 323.153870,525.375977 331.388977,519.451782 
	C341.309601,512.315125 352.824219,508.479584 364.551483,506.253082 
	C387.361389,501.922455 410.289856,498.007935 433.316284,495.076111 
	C466.545258,490.845337 500.021423,490.278442 533.482178,491.053802 
	C570.065491,491.901550 606.515320,494.421051 642.464478,501.840393 
	C643.601135,502.074982 644.776184,502.123840 646.326172,502.379608 
	C644.585632,505.330719 642.679260,508.372955 640.276367,510.952606 
	C633.087585,518.670227 625.704407,526.206787 617.725464,533.918091 
	C593.118103,524.018982 568.105286,522.355103 542.609802,524.386719 
	C516.434265,526.472534 490.369568,525.558289 464.431091,521.410889 
	C442.302277,517.872681 420.540100,518.885376 399.774628,527.903503 
	C383.675903,534.894958 367.911011,542.655090 351.997711,550.073486 
z"/>
<path fill="#F8F0E3" opacity="1.000000" stroke="none" 
	d="
M630.037170,560.819519 
	C629.590149,560.907776 629.143127,560.996033 628.182251,560.728760 
	C625.409424,559.582397 623.152649,558.132690 620.891296,558.125488 
	C614.367920,558.104797 607.843018,558.670959 601.318237,558.996948 
	C587.943359,559.665100 574.535889,559.949829 561.201843,561.092712 
	C546.592468,562.344971 532.043213,564.326416 517.488037,566.152161 
	C515.374207,566.417358 512.563354,566.702454 513.019531,570.182983 
	C499.251038,569.951660 485.472687,569.965942 471.717041,569.414185 
	C459.943146,568.941956 448.191193,567.873108 436.438141,566.957825 
	C432.505188,566.651550 428.598724,566.004822 424.388580,564.938660 
	C426.072235,562.745544 428.272400,561.334656 429.985352,559.474915 
	C439.392944,549.261353 450.937897,542.791992 464.444885,540.010376 
	C471.378937,538.582336 478.443481,537.636658 485.495941,536.965637 
	C501.115234,535.479309 516.761536,533.298035 532.401672,533.257202 
	C551.903625,533.206238 571.428894,534.768311 590.905640,536.168762 
	C598.054932,536.682861 605.094360,538.724365 612.183899,540.069092 
	C611.448181,541.119995 610.712524,542.170898 609.244263,544.268127 
	C617.387024,544.568665 624.724426,544.839478 632.521851,545.033569 
	C640.299988,543.898987 647.738281,543.333740 654.888977,541.589661 
	C658.873413,540.617798 662.095642,540.825623 665.594727,542.551147 
	C669.414001,544.434631 673.352051,546.077087 677.570068,547.955566 
	C667.191223,551.358093 656.511597,554.736877 645.753479,557.843750 
	C641.946899,558.943054 637.948669,559.379028 633.281738,560.070740 
	C631.696045,560.288940 630.866577,560.554199 630.037170,560.819519 
z"/>
<path fill="#F3EADB" opacity="1.000000" stroke="none" 
	d="
M612.479004,539.940796 
	C605.094360,538.724365 598.054932,536.682861 590.905640,536.168762 
	C571.428894,534.768311 551.903625,533.206238 532.401672,533.257202 
	C516.761536,533.298035 501.115234,535.479309 485.495941,536.965637 
	C478.443481,537.636658 471.378937,538.582336 464.444885,540.010376 
	C450.937897,542.791992 439.392944,549.261353 429.985352,559.474915 
	C428.272400,561.334656 426.072235,562.745544 424.044189,564.716675 
	C399.594971,562.850952 375.693970,558.160461 352.171936,550.391724 
	C367.911011,542.655090 383.675903,534.894958 399.774628,527.903503 
	C420.540100,518.885376 442.302277,517.872681 464.431091,521.410889 
	C490.369568,525.558289 516.434265,526.472534 542.609802,524.386719 
	C568.105286,522.355103 593.118103,524.018982 617.416626,534.080566 
	C616.111023,536.030151 614.442505,537.921265 612.479004,539.940796 
z"/>
<path fill="#1F1A20" opacity="1.000000" stroke="none" 
	d="
M827.792114,331.811279 
	C831.359924,327.841980 834.473816,323.906036 838.092102,320.506958 
	C843.616028,315.317535 850.286011,314.595734 853.700806,318.339508 
	C856.768799,321.703186 855.480530,328.472656 850.078979,333.279236 
	C841.032837,341.329041 831.623047,348.969849 822.375427,356.793518 
	C809.961792,367.295715 797.563354,377.816010 785.140198,388.306915 
	C783.536316,389.661316 781.823364,390.886536 780.160950,392.171600 
	C779.814758,391.866333 779.468506,391.561066 779.122314,391.255798 
	C780.985107,388.779755 782.747009,386.219696 784.726868,383.841095 
	C798.525635,367.263367 812.372253,350.725464 826.189880,334.163391 
	C826.718689,333.529633 827.109192,332.780457 827.792114,331.811279 
z"/>
<path fill="#1F1A20" opacity="1.000000" stroke="none" 
	d="
M778.012939,394.010559 
	C778.109863,393.963654 778.206726,393.916748 778.152222,393.935181 
	C778.000793,394.000549 778.012939,394.010529 778.012939,394.010559 
z"/>
<path fill="#1F1A20" opacity="1.000000" stroke="none" 
	d="
M777.996216,393.994751 
	C777.896240,394.019897 777.800903,394.050812 777.859253,394.046143 
	C778.012939,394.010529 778.000793,394.000549 777.996216,393.994751 
z"/>
<path fill="#B1B3B9" opacity="1.000000" stroke="none" 
	d="
M347.824249,715.056458 
	C353.959167,714.918457 359.671570,714.873718 365.873260,714.921814 
	C368.488434,716.337585 370.516266,717.863586 372.758118,718.946411 
	C380.109619,722.497131 387.538849,725.886841 394.754883,729.669678 
	C389.936035,732.824829 387.871338,739.221558 388.368378,744.959290 
	C389.653259,759.791992 391.496277,763.904541 376.690552,767.325073 
	C376.423279,767.386841 376.230164,767.769470 375.661652,767.994019 
	C374.546112,768.322083 373.771393,768.658630 372.583130,768.983582 
	C369.610840,769.571777 366.785614,769.671509 364.543854,770.866150 
	C358.143158,774.276611 351.882202,777.977844 345.747162,781.851196 
	C337.729279,786.913391 333.456818,786.139282 328.584747,778.332336 
	C327.707153,776.926147 326.707916,775.596436 325.783264,774.218933 
	C318.920227,763.994629 312.117767,761.434143 300.704773,765.728149 
	C293.270599,768.525208 286.150909,772.174622 278.953918,775.576660 
	C276.508850,776.732483 274.258392,778.299927 271.919006,779.679321 
	C262.634705,780.622864 257.402618,774.733887 260.703766,765.887817 
	C262.665039,760.632324 265.910736,755.323303 269.957611,751.496155 
	C277.134674,744.709045 285.361237,739.031677 293.588806,733.183594 
	C295.397797,733.614624 297.026886,734.305908 298.095184,733.803894 
	C308.627258,728.854309 319.614777,726.536865 331.280090,726.834351 
	C336.098114,726.957214 340.942596,726.042542 346.180603,725.562622 
	C344.704926,720.848389 341.256958,721.135742 338.364441,721.142029 
	C324.721252,721.171814 311.953369,724.840088 299.773163,730.828796 
	C299.011292,731.203430 297.915222,730.898376 296.974640,730.909607 
	C308.353882,723.070190 321.324249,719.533020 334.667206,717.060547 
	C338.885254,716.278992 343.155396,715.778748 347.824249,715.056458 
M287.401093,742.833862 
	C284.429810,744.179871 281.458557,745.525818 278.487274,746.871826 
	C278.616394,747.022034 278.745483,747.172180 278.874603,747.322388 
	C294.121765,745.650146 309.368927,743.977966 324.616119,742.305786 
	C323.121124,740.514343 321.462708,739.577820 319.681458,739.130554 
	C308.761139,736.388550 298.371521,738.930298 287.401093,742.833862 
M276.617401,748.511963 
	C276.617401,748.511963 276.490082,748.583984 276.617401,748.511963 
z"/>
<path fill="#3A1F19" opacity="1.000000" stroke="none" 
	d="
M431.979340,747.389160 
	C449.075256,745.384888 466.243774,744.209351 483.277466,741.996155 
	C499.802246,739.848999 516.362610,737.398010 532.589905,733.690979 
	C551.243103,729.429565 569.546814,723.639343 588.006592,718.528687 
	C588.742432,718.325012 589.522644,718.281616 591.826416,717.923340 
	C589.507202,721.505188 588.028992,724.143188 586.217834,726.528381 
	C573.090576,743.816528 556.204590,755.947449 535.357117,761.981995 
	C520.121948,766.391968 504.728424,770.409302 489.200653,773.606812 
	C476.125916,776.299072 462.756042,777.557800 449.228424,779.744019 
	C447.660614,779.094238 445.786224,778.429138 445.196381,777.164734 
	C440.654938,767.429932 436.362579,757.578857 431.979340,747.389160 
z"/>
<path fill="#8F979E" opacity="1.000000" stroke="none" 
	d="
M376.002441,768.002441 
	C376.230164,767.769470 376.423279,767.386841 376.690552,767.325073 
	C391.496277,763.904541 389.653259,759.791992 388.368378,744.959290 
	C387.871338,739.221558 389.936035,732.824829 394.954407,729.961060 
	C403.432251,735.003967 410.756927,740.698669 410.030426,751.633545 
	C409.847870,754.381714 408.858704,757.141663 407.877563,759.760315 
	C402.869537,773.126770 397.701538,786.433228 392.669922,799.790955 
	C388.380310,811.178772 384.347809,814.299255 372.339813,814.218750 
	C364.718231,814.167725 357.069855,813.740967 349.491516,812.936279 
	C342.951660,812.241943 337.526031,808.971375 333.728119,803.492126 
	C327.149323,794.001099 318.523895,788.150208 306.861328,786.372070 
	C300.026642,785.330017 293.471558,782.565430 286.672638,781.138000 
	C282.170166,780.192749 277.458435,780.244324 272.379700,779.764526 
	C274.258392,778.299927 276.508850,776.732483 278.953918,775.576660 
	C286.150909,772.174622 293.270599,768.525208 300.704773,765.728149 
	C312.117767,761.434143 318.920227,763.994629 325.783264,774.218933 
	C326.707916,775.596436 327.707153,776.926147 328.584747,778.332336 
	C333.456818,786.139282 337.729279,786.913391 345.747162,781.851196 
	C351.882202,777.977844 358.143158,774.276611 364.543854,770.866150 
	C366.785614,769.671509 369.610840,769.571777 372.584808,768.986023 
	C373.000000,769.000000 373.003143,769.004883 372.807495,769.278198 
	C367.691437,772.811462 362.770996,776.071350 357.850555,779.331238 
	C358.196289,779.850220 358.541992,780.369141 358.887726,780.888123 
	C366.322693,777.867981 373.960236,775.218323 380.968445,768.610840 
	C378.436859,768.298401 377.217743,768.148010 375.999298,767.998779 
	C376.000000,768.000000 376.002441,768.002441 376.002441,768.002441 
M355.979523,796.495117 
	C366.408447,790.931274 376.837372,785.367371 387.965332,779.430542 
	C374.369812,778.023987 352.745300,789.531250 347.008087,801.379333 
	C350.303802,799.584167 352.818085,798.214600 355.979523,796.495117 
M385.224518,793.911682 
	C386.057922,793.267334 386.891327,792.622986 387.868042,791.867737 
	C381.713776,788.517639 375.838348,790.583740 374.026093,797.658020 
	C378.000732,796.356812 381.277222,795.284180 385.224518,793.911682 
z"/>
<path fill="#71757A" opacity="1.000000" stroke="none" 
	d="
M273.276367,725.893188 
	C274.233063,716.497192 279.754242,709.707397 287.181885,704.673523 
	C293.763733,700.212769 294.732574,694.465149 293.694977,687.369141 
	C292.847992,681.576721 291.427734,675.592224 295.526062,670.060669 
	C309.351013,677.033142 322.151306,684.891357 331.172943,698.555847 
	C312.479218,708.966919 293.422119,718.168884 273.276367,725.893188 
z"/>
<path fill="#E2E3E7" opacity="1.000000" stroke="none" 
	d="
M296.678284,731.000854 
	C297.915222,730.898376 299.011292,731.203430 299.773163,730.828796 
	C311.953369,724.840088 324.721252,721.171814 338.364441,721.142029 
	C341.256958,721.135742 344.704926,720.848389 346.180603,725.562622 
	C340.942596,726.042542 336.098114,726.957214 331.280090,726.834351 
	C319.614777,726.536865 308.627258,728.854309 298.095184,733.803894 
	C297.026886,734.305908 295.397797,733.614624 293.928223,733.122559 
	C294.678986,732.209290 295.530457,731.650635 296.678284,731.000854 
z"/>
<path fill="#A4A8AD" opacity="1.000000" stroke="none" 
	d="
M732.833618,763.104614 
	C732.523254,758.101685 731.544983,753.031189 732.043457,748.110168 
	C733.041748,738.252686 734.885132,728.482483 736.311768,718.666382 
	C738.594299,702.961731 751.271606,688.950378 768.026123,686.362854 
	C779.577209,684.578857 791.549805,684.923401 803.302612,685.299866 
	C809.170105,685.487793 813.598145,689.578308 815.672974,695.807922 
	C814.909790,697.676270 814.256897,698.983398 813.974792,700.366211 
	C812.206238,709.034851 808.406860,715.921387 799.991882,720.221313 
	C794.341125,723.108765 787.640015,726.445679 784.654053,731.498962 
	C779.166809,740.785217 773.066406,740.962524 764.262146,737.808472 
	C758.061096,735.586975 751.977783,737.975220 747.768433,743.023254 
	C744.614685,746.805359 742.559814,751.482544 739.670776,755.513977 
	C737.699585,758.264832 735.133667,760.589478 732.833618,763.104614 
z"/>
<path fill="#A4A8AD" opacity="1.000000" stroke="none" 
	d="
M635.958923,744.009399 
	C635.506531,742.785950 635.187500,741.489319 634.566895,740.358154 
	C633.849792,739.050903 632.867065,737.889343 631.991089,736.290527 
	C640.585144,731.865112 649.560242,729.616150 659.751526,730.519897 
	C663.117859,733.144836 665.875122,735.556641 668.632385,737.968445 
	C673.034668,744.056396 677.437012,750.144348 681.822632,756.868408 
	C676.838562,764.511230 677.001953,770.883972 682.870728,777.677002 
	C686.084045,781.396362 687.679749,786.513306 689.612366,790.954041 
	C682.958435,790.122009 676.738708,790.139587 671.183716,793.561768 
	C668.259827,795.363159 665.738159,797.817566 663.034790,799.977051 
	C655.985413,795.348938 648.784485,790.929993 641.964050,785.986023 
	C639.371033,784.106445 637.220703,781.266113 635.612000,778.440430 
	C629.421692,767.567200 633.482971,758.792664 645.608521,756.283081 
	C646.822937,756.031738 648.050415,755.843933 649.271851,755.626648 
	C649.308716,755.095947 649.345520,754.565247 649.382385,754.034607 
	C644.277954,753.479797 639.173584,752.925049 633.555725,751.925781 
	C634.014465,748.990662 634.986694,746.500000 635.958923,744.009399 
z"/>
<path fill="#BFC0C6" opacity="1.000000" stroke="none" 
	d="
M671.859009,719.265869 
	C672.851929,717.088196 673.956055,715.119202 675.308960,713.339172 
	C686.226440,698.974304 697.190735,684.645020 708.387756,670.093384 
	C719.604675,669.915588 730.576050,669.870300 741.543213,670.063660 
	C743.301941,670.094604 745.041931,671.191956 746.917725,672.133301 
	C741.768250,677.193970 735.561340,681.223694 731.409973,686.787170 
	C722.974731,698.091858 715.453064,710.101440 707.939819,722.062378 
	C703.225525,729.567444 698.675232,737.016479 691.385071,742.447754 
	C688.617249,744.509827 686.513062,744.463074 684.657654,741.905762 
	C681.663940,737.779602 678.745361,733.567871 676.198730,729.159119 
	C674.470154,726.166626 673.432312,722.775146 671.859009,719.265869 
z"/>
<path fill="#E2E3E7" opacity="1.000000" stroke="none" 
	d="
M635.533081,744.024414 
	C634.986694,746.500000 634.014465,748.990662 633.134705,751.861267 
	C627.524963,759.179626 626.199280,767.457764 625.893799,776.503906 
	C625.073120,778.940796 623.949707,780.871460 623.570496,782.938660 
	C620.960632,797.164368 611.037537,804.505249 598.828674,809.983154 
	C585.465515,815.979004 580.332275,807.879028 580.020996,796.716858 
	C579.613708,782.108276 587.060730,771.122253 597.025146,761.505615 
	C607.645752,751.255615 620.193359,745.020874 635.533081,744.024414 
z"/>
<path fill="#929AA0" opacity="1.000000" stroke="none" 
	d="
M732.933105,763.472229 
	C735.133667,760.589478 737.699585,758.264832 739.670776,755.513977 
	C742.559814,751.482544 744.614685,746.805359 747.768433,743.023254 
	C751.977783,737.975220 758.061096,735.586975 764.262146,737.808472 
	C773.066406,740.962524 779.166809,740.785217 784.654053,731.498962 
	C787.640015,726.445679 794.341125,723.108765 799.991882,720.221313 
	C808.406860,715.921387 812.206238,709.034851 813.974792,700.366211 
	C814.256897,698.983398 814.909790,697.676270 815.727173,696.157715 
	C820.583435,704.838257 825.333191,713.587402 829.557800,722.583191 
	C833.581238,731.150879 832.179138,739.235413 824.093933,745.914429 
	C812.840271,755.210632 800.706177,763.440796 788.478638,772.070984 
	C788.008423,772.014771 787.754883,771.762756 787.754883,771.762756 
	C791.516968,766.315247 795.493103,760.999329 798.955688,755.367676 
	C800.841492,752.300598 802.146057,748.785767 803.198242,745.316895 
	C804.969604,739.476746 802.831482,736.823914 796.623535,736.944092 
	C786.962097,737.131104 778.512390,741.147583 770.599854,746.138000 
	C763.577271,750.567200 757.080139,755.821716 750.159668,760.424255 
	C747.006470,762.521240 743.535767,764.449158 739.930481,765.436646 
	C737.927246,765.985413 735.350708,764.440857 732.933105,763.472229 
z"/>
<path fill="#8F979E" opacity="1.000000" stroke="none" 
	d="
M690.004883,791.000000 
	C687.679749,786.513306 686.084045,781.396362 682.870728,777.677002 
	C677.001953,770.883972 676.838562,764.511230 681.963562,757.170044 
	C688.295105,765.400757 694.500793,773.943481 700.601562,782.560547 
	C701.334473,783.595642 701.652466,785.004028 701.898682,786.289917 
	C702.814453,791.073120 701.451233,792.371521 696.676453,791.485596 
	C695.051514,791.184082 693.402222,791.014587 691.110718,790.887695 
	C690.457397,790.990662 690.004883,791.000000 690.004883,791.000000 
z"/>
<path fill="#929AA0" opacity="1.000000" stroke="none" 
	d="
M689.612366,790.954041 
	C690.004883,791.000000 690.457397,790.990662 690.683472,790.982666 
	C691.107849,793.928955 691.688721,796.918030 691.423462,799.830078 
	C690.894470,805.637695 688.647156,808.000977 683.070496,806.869568 
	C676.383057,805.512756 669.992004,802.694641 663.253662,800.243164 
	C665.738159,797.817566 668.259827,795.363159 671.183716,793.561768 
	C676.738708,790.139587 682.958435,790.122009 689.612366,790.954041 
z"/>
<path fill="#929AA0" opacity="1.000000" stroke="none" 
	d="
M668.665405,737.543945 
	C665.875122,735.556641 663.117859,733.144836 660.205688,730.449097 
	C662.820251,727.033813 665.589722,723.902527 668.684753,720.608887 
	C668.906311,726.004150 668.802307,731.561829 668.665405,737.543945 
z"/>
<path fill="#929AA0" opacity="1.000000" stroke="none" 
	d="
M788.134033,772.141968 
	C787.999878,772.444946 787.740112,772.620789 787.480286,772.796631 
	C787.431885,772.537964 787.383484,772.279358 787.544922,771.891724 
	C787.754883,771.762756 788.008423,772.014771 788.134033,772.141968 
z"/>
<path fill="#D99362" opacity="1.000000" stroke="none" 
	d="
M741.996704,526.638000 
	C733.222168,515.918213 721.960571,508.475922 708.481873,504.316254 
	C707.857300,504.123505 707.185730,504.082825 706.121277,503.968719 
	C707.477844,502.407227 709.249146,500.848297 711.281738,499.167175 
	C717.269409,502.565552 723.119690,505.902313 728.688904,509.656097 
	C734.791260,513.769226 739.938232,518.821167 741.996704,526.638000 
z"/>
<path fill="#B1B3B9" opacity="1.000000" stroke="none" 
	d="
M249.852646,682.046143 
	C234.526398,687.483521 220.133301,695.439148 206.328003,704.861877 
	C211.669540,699.736572 217.333603,694.867188 223.353958,689.963745 
	C225.796005,688.280151 227.881760,686.630554 229.978745,684.987427 
	C229.989975,684.993896 229.992615,684.968323 230.366287,684.981567 
	C232.487762,683.989563 234.235550,682.984253 235.989410,681.985779 
	C235.995468,681.992615 235.986023,681.974854 235.986023,681.974854 
	C240.470673,681.988892 244.955338,682.002991 249.852646,682.046143 
z"/>
<path fill="#BFC0C6" opacity="1.000000" stroke="none" 
	d="
M206.961472,697.228149 
	C209.813782,694.146423 212.318726,690.620972 215.583115,688.065674 
	C225.597763,680.226685 235.662613,674.003479 247.076324,676.573242 
	C243.036957,678.403381 239.715836,679.908142 236.190369,681.693848 
	C235.986023,681.974854 235.995468,681.992615 235.628906,681.989014 
	C233.505753,682.979675 231.749191,683.973999 229.992615,684.968323 
	C229.992615,684.968323 229.989975,684.993896 229.614883,684.986938 
	C227.191727,686.275146 225.143677,687.570312 222.700119,688.878784 
	C220.476105,689.532776 218.498535,689.915466 216.850281,690.868042 
	C213.460770,692.826721 210.247345,695.090149 206.961472,697.228149 
z"/>
<path fill="#8F979E" opacity="1.000000" stroke="none" 
	d="
M206.770050,697.465027 
	C210.247345,695.090149 213.460770,692.826721 216.850281,690.868042 
	C218.498535,689.915466 220.476105,689.532776 222.663788,689.161926 
	C223.014511,689.620361 223.006088,689.809082 222.997665,689.997803 
	C217.333603,694.867188 211.669540,699.736572 205.993820,704.994324 
	C205.907013,705.600708 205.770676,705.769348 205.029907,705.933594 
	C203.973587,705.964417 203.460556,705.950256 202.947510,705.936035 
	C202.802643,705.070740 202.657791,704.205322 202.246964,703.132690 
	C203.513550,701.184204 205.046097,699.443054 206.770050,697.465027 
z"/>
<path fill="#BFC0C6" opacity="1.000000" stroke="none" 
	d="
M214.755386,706.624268 
	C224.123230,702.502747 233.549088,702.516174 243.291275,704.288940 
	C228.062134,708.716614 212.832993,713.144226 197.603851,717.571838 
	C197.375015,717.192078 197.146179,716.812317 196.917358,716.432556 
	C202.749664,713.223145 208.581985,710.013672 214.755386,706.624268 
z"/>
<path fill="#8F979E" opacity="1.000000" stroke="none" 
	d="
M250.857529,688.055664 
	C252.033279,688.729797 252.826721,689.393433 253.620178,690.057068 
	C252.782761,690.686951 252.008820,691.716797 251.094467,691.861877 
	C249.286255,692.148926 247.400406,691.946594 245.546677,691.946594 
	C245.410843,691.356689 245.275024,690.766785 245.139191,690.176880 
	C246.917862,689.466370 248.696533,688.755859 250.857529,688.055664 
z"/>
<path fill="#B1B3B9" opacity="1.000000" stroke="none" 
	d="
M202.044067,708.038818 
	C201.604828,708.582031 201.165573,709.125244 200.726334,709.668457 
	C200.257477,709.218811 199.788635,708.769226 199.319794,708.319641 
	C200.007721,708.206482 200.695663,708.093323 201.692078,707.989746 
	C202.000534,707.999329 202.044067,708.038818 202.044067,708.038818 
z"/>
<path fill="#B1B3B9" opacity="1.000000" stroke="none" 
	d="
M202.928711,706.192078 
	C203.460556,705.950256 203.973587,705.964417 204.874664,705.998413 
	C204.735138,706.356018 204.207565,706.693787 203.339478,707.015930 
	C202.998962,707.000305 202.954010,706.959595 202.954010,706.959595 
	C202.939316,706.789124 202.924606,706.618591 202.928711,706.192078 
z"/>
<path fill="#B1B3B9" opacity="1.000000" stroke="none" 
	d="
M196.969116,711.974854 
	C196.873672,712.415039 196.778214,712.855164 196.682739,713.295349 
	C196.658524,712.953552 196.634293,712.611816 196.803604,712.134399 
	C196.997131,711.998779 196.969116,711.974854 196.969116,711.974854 
z"/>
<path fill="#B1B3B9" opacity="1.000000" stroke="none" 
	d="
M197.982285,710.985840 
	C198.126053,710.789185 198.269821,710.592529 198.413605,710.395874 
	C198.409058,710.578674 198.404495,710.761414 198.200958,710.973267 
	C198.001984,711.002319 197.982300,710.985840 197.982285,710.985840 
z"/>
<path fill="#B1B3B9" opacity="1.000000" stroke="none" 
	d="
M201.980743,707.977539 
	C202.129333,707.672302 202.297714,707.388794 202.710052,707.032471 
	C202.954010,706.959595 202.998962,707.000305 203.020554,707.023804 
	C202.872314,707.329834 202.702484,707.612366 202.288361,707.966858 
	C202.044067,708.038818 202.000534,707.999329 201.980743,707.977539 
z"/>
<path fill="#B1B3B9" opacity="1.000000" stroke="none" 
	d="
M198.010681,711.012512 
	C197.841019,711.307922 197.662689,711.593140 197.226746,711.926575 
	C196.969116,711.974854 196.997131,711.998779 197.008667,712.013306 
	C197.184937,711.742126 197.349655,711.456421 197.748337,711.078308 
	C197.982300,710.985840 198.001984,711.002319 198.010681,711.012512 
z"/>
<path fill="#CFA687" opacity="1.000000" stroke="none" 
	d="
M710.665894,564.999634 
	C697.592285,570.001770 684.378235,575.918518 670.585022,579.751465 
	C637.568054,588.926453 603.766663,594.222595 569.631042,597.036560 
	C547.775635,598.838318 525.857605,599.879456 503.222260,600.866211 
	C496.679688,600.312927 490.880249,599.984680 485.086212,600.061401 
	C481.632782,600.107178 480.325958,598.771912 480.728241,594.308716 
	C486.367035,594.308716 491.938660,594.458923 497.490265,594.192627 
	C498.726013,594.133362 499.891541,592.608582 501.089417,591.758545 
	C525.453247,590.828857 549.864929,590.565186 574.170044,588.818604 
	C613.987000,585.957275 653.557068,581.019470 692.138245,570.120178 
	C698.182434,568.412720 704.220947,566.685181 710.665894,564.999634 
z"/>
<path fill="#D6AB8A" opacity="1.000000" stroke="none" 
	d="
M500.739563,591.537903 
	C499.891541,592.608582 498.726013,594.133362 497.490265,594.192627 
	C491.938660,594.458923 486.367035,594.308716 480.728241,594.308716 
	C480.325958,598.771912 481.632782,600.107178 485.086212,600.061401 
	C490.880249,599.984680 496.679688,600.312927 502.761963,600.785278 
	C488.081268,601.257019 473.078247,602.154053 458.157959,601.404297 
	C433.586548,600.169495 409.066833,597.892700 384.530518,595.988342 
	C381.391113,595.744751 378.282745,595.101685 374.816345,594.384705 
	C380.788574,594.125793 387.104523,594.125793 393.420441,594.125793 
	C393.631622,593.730835 393.842804,593.335815 394.053955,592.940857 
	C388.703217,590.627014 383.294098,588.437561 378.019623,585.961182 
	C373.536682,583.856567 367.493347,584.446655 365.038177,578.296997 
	C373.970917,579.454285 382.911407,581.191406 391.917786,582.461792 
	C404.046967,584.172791 416.190216,586.016785 428.392822,586.925049 
	C452.367920,588.709656 476.388153,589.888062 500.739563,591.537903 
z"/>
<path fill="#F3EADB" opacity="1.000000" stroke="none" 
	d="
M513.422485,570.267334 
	C512.563354,566.702454 515.374207,566.417358 517.488037,566.152161 
	C532.043213,564.326416 546.592468,562.344971 561.201843,561.092712 
	C574.535889,559.949829 587.943359,559.665100 601.318237,558.996948 
	C607.843018,558.670959 614.367920,558.104797 620.891296,558.125488 
	C623.152649,558.132690 625.409424,559.582397 627.840149,560.704468 
	C618.366089,562.643066 608.775757,564.970886 599.063660,565.718750 
	C573.174988,567.712402 547.235168,569.045593 521.311951,570.579285 
	C518.829651,570.726074 516.321533,570.437866 513.422485,570.267334 
z"/>
<path fill="#F3EADB" opacity="1.000000" stroke="none" 
	d="
M630.373413,560.864380 
	C630.866577,560.554199 631.696045,560.288940 632.872375,560.058350 
	C632.382751,560.365112 631.546265,560.637146 630.373413,560.864380 
z"/>
<path fill="#CFA687" opacity="1.000000" stroke="none" 
	d="
M712.768860,564.048706 
	C712.601135,564.369873 712.111389,564.712524 711.309814,565.067261 
	C711.480957,564.742920 711.963867,564.406494 712.768860,564.048706 
z"/>
<path fill="#99C7CC" opacity="1.000000" stroke="none" 
	d="
M375.122070,485.359253 
	C359.137634,489.256958 343.144073,493.117981 327.177185,497.086212 
	C324.309204,497.798981 321.551056,498.953827 318.367432,499.920532 
	C319.678345,496.253937 320.979889,492.330200 323.114532,488.929474 
	C333.754639,471.978699 344.613770,455.165375 356.080566,438.318695 
	C357.228851,438.513855 357.687866,438.838562 358.156464,438.853119 
	C370.013519,439.221771 381.815430,439.298645 393.691254,438.056061 
	C406.896637,436.674316 415.689728,428.890991 424.082947,419.958069 
	C423.401550,430.989075 422.720154,442.020111 421.687500,453.482758 
	C420.224854,452.286560 418.247192,450.703796 418.159729,449.022675 
	C417.862549,443.309937 417.693634,437.492401 421.363037,432.410095 
	C421.901489,431.664307 421.222626,430.039581 421.106995,428.821533 
	C419.801819,428.990479 418.132751,428.710968 417.263062,429.416656 
	C415.089661,431.180206 413.053802,433.219910 411.360321,435.450592 
	C401.473328,448.473785 391.646942,461.544037 381.926331,474.691742 
	C379.424896,478.075073 377.377869,481.794342 375.122070,485.359253 
z"/>
<path fill="#9DCAD0" opacity="1.000000" stroke="none" 
	d="
M424.168152,419.571869 
	C415.689728,428.890991 406.896637,436.674316 393.691254,438.056061 
	C381.815430,439.298645 370.013519,439.221771 358.156464,438.853119 
	C357.687866,438.838562 357.228851,438.513855 356.382080,438.166870 
	C361.392670,431.106384 366.340118,423.797211 372.281647,417.413300 
	C381.990082,406.982086 391.973206,396.741425 402.534027,387.186951 
	C413.070160,377.654846 424.441559,369.043396 435.552612,360.160675 
	C435.910065,359.874908 437.429626,361.042877 438.649078,361.733337 
	C432.213898,379.365234 427.464691,397.293243 424.987213,415.809814 
	C424.834991,416.947449 424.502197,418.060944 424.168152,419.571869 
z"/>
<path fill="#B66230" opacity="1.000000" stroke="none" 
	d="
M482.303528,658.838745 
	C475.251404,660.522034 468.553009,663.102722 461.763000,663.371887 
	C445.300232,664.024292 428.651215,664.933716 412.353302,663.177551 
	C399.916534,661.837463 387.892120,656.606995 375.716705,652.997742 
	C374.405823,652.609131 373.311188,651.490845 372.058716,650.356689 
	C402.400116,651.155396 431.556915,644.447205 460.435852,636.006042 
	C466.478668,634.239746 472.491821,632.371948 478.759766,630.271790 
	C482.087799,631.035095 485.378876,631.691711 488.221130,633.196167 
	C495.183868,636.881836 501.939453,640.958801 509.825928,645.478699 
	C500.006134,650.244568 491.310883,654.464661 482.303528,658.838745 
z"/>
<path fill="#D6AB8A" opacity="1.000000" stroke="none" 
	d="
M334.767517,585.822632 
	C333.906830,586.003052 332.856659,585.870605 331.411194,585.793030 
	C331.015900,585.847839 330.985901,585.920227 330.866943,585.605591 
	C329.534790,585.250000 328.321625,585.208984 327.108398,585.168030 
	C324.757355,584.029419 322.406311,582.890808 319.935486,581.408203 
	C324.736481,582.546082 329.657257,584.027954 334.767517,585.822632 
z"/>
<path fill="#1F1A20" opacity="1.000000" stroke="none" 
	d="
M327.340973,585.430786 
	C328.321625,585.208984 329.534790,585.250000 330.902679,585.621704 
	C329.896088,585.866211 328.734802,585.779907 327.340973,585.430786 
z"/>
<path fill="#9CC9CE" opacity="1.000000" stroke="none" 
	d="
M484.078613,475.754974 
	C472.742126,476.243866 461.405609,476.732758 449.614319,477.241180 
	C447.477478,468.104889 445.795471,458.949066 444.168610,449.378418 
	C445.397705,448.247131 446.849792,447.769989 447.703552,446.777954 
	C459.458496,433.118683 471.237640,419.477600 482.793762,405.650665 
	C494.344849,391.829712 505.887360,377.988953 516.978577,363.801147 
	C523.565491,355.375214 529.217468,346.221954 535.472107,337.526825 
	C536.033936,336.745789 537.937805,336.930084 539.533936,337.191864 
	C536.329895,345.200531 533.383728,353.027313 529.152100,360.083160 
	C523.270752,369.889740 516.378357,379.086700 510.002075,388.600433 
	C492.682068,414.442963 481.135834,442.044403 484.145691,474.330536 
	C484.087646,474.992889 484.083130,475.373932 484.078613,475.754974 
z"/>
<path fill="#9DCAD0" opacity="1.000000" stroke="none" 
	d="
M466.600403,341.056488 
	C467.910767,340.701660 469.262238,340.967285 469.979645,340.412689 
	C479.865356,332.770630 489.563202,324.883148 499.517334,317.332886 
	C506.691589,311.891174 508.697754,312.662354 511.532776,321.191132 
	C511.993164,322.576141 512.148743,324.062408 512.723877,325.750946 
	C508.586121,331.907806 504.587463,338.191132 499.676117,343.653870 
	C484.194794,360.873260 468.394287,377.806396 452.635956,394.774750 
	C451.362823,396.145630 449.468933,396.939941 447.512817,398.016479 
	C450.885651,378.215759 457.248627,359.293274 466.600403,341.056488 
z"/>
<path fill="#FBFEFE" opacity="1.000000" stroke="none" 
	d="
M484.199188,474.049225 
	C481.135834,442.044403 492.682068,414.442963 510.002075,388.600433 
	C516.378357,379.086700 523.270752,369.889740 529.152100,360.083160 
	C533.383728,353.027313 536.329895,345.200531 539.845093,337.346527 
	C543.119080,327.154022 542.306824,317.288849 539.521790,307.402557 
	C540.057129,307.293884 540.592468,307.185211 541.127747,307.076538 
	C542.727783,312.134888 544.327759,317.193268 545.997925,322.874908 
	C546.068115,323.498169 546.184631,323.968964 546.184631,323.968964 
	C546.394714,326.373627 546.604858,328.778259 546.838379,331.597565 
	C545.451538,350.692871 536.285583,365.957336 525.834717,380.804047 
	C516.331055,394.305084 507.912781,408.522858 503.327789,424.543610 
	C498.649170,440.891418 497.912415,457.286621 504.768860,473.942230 
	C504.562500,474.871185 504.321503,475.239319 504.080536,475.607483 
	C498.346130,475.706177 492.611725,475.804871 486.289917,475.608765 
	C485.201416,474.892365 484.700317,474.470795 484.199188,474.049225 
z"/>
<path fill="#94C4CA" opacity="1.000000" stroke="none" 
	d="
M546.319031,323.870239 
	C546.184631,323.968964 546.068115,323.498169 546.087769,323.256592 
	C546.496826,323.170563 546.612122,323.422729 546.319031,323.870239 
z"/>
<path fill="#9CC9CE" opacity="1.000000" stroke="none" 
	d="
M375.554718,485.315613 
	C377.377869,481.794342 379.424896,478.075073 381.926331,474.691742 
	C391.646942,461.544037 401.473328,448.473785 411.360321,435.450592 
	C413.053802,433.219910 415.089661,431.180206 417.263062,429.416656 
	C418.132751,428.710968 419.801819,428.990479 421.106995,428.821533 
	C421.222626,430.039581 421.901489,431.664307 421.363037,432.410095 
	C417.693634,437.492401 417.862549,443.309937 418.159729,449.022675 
	C418.247192,450.703796 420.224854,452.286560 421.723389,453.946991 
	C422.748108,459.361572 423.385620,464.743561 423.621979,470.568481 
	C418.807404,472.522736 414.234131,473.703430 410.064941,475.719666 
	C408.548065,476.453186 407.994385,479.178497 407.001221,480.994995 
	C396.663269,482.420624 386.325287,483.846313 375.554718,485.315613 
z"/>
<path fill="#99C7CC" opacity="1.000000" stroke="none" 
	d="
M407.444031,481.026428 
	C407.994385,479.178497 408.548065,476.453186 410.064941,475.719666 
	C414.234131,473.703430 418.807404,472.522736 423.597595,471.006287 
	C424.327484,473.423157 424.680603,475.845093 425.031891,478.693054 
	C419.315643,479.765350 413.601227,480.411621 407.444031,481.026428 
z"/>
<path fill="#FCFDFD" opacity="1.000000" stroke="none" 
	d="
M504.537170,475.682678 
	C504.321503,475.239319 504.562500,474.871185 504.880737,474.297852 
	C505.994446,473.572449 507.725342,473.269653 507.966095,472.500427 
	C514.685913,451.031708 529.880371,435.151703 543.340759,418.060547 
	C555.666443,402.410187 568.196411,386.819580 579.170044,370.232544 
	C591.217590,352.022247 592.498474,332.927704 578.002808,314.363342 
	C577.998230,314.001465 578.017090,313.979950 578.017090,313.979950 
	C590.096741,321.837891 597.732727,332.647430 598.936279,347.197296 
	C600.325684,363.995178 593.270874,378.381714 584.554810,391.943237 
	C573.592590,408.999634 561.864929,425.565491 550.967529,442.661621 
	C544.716553,452.468231 539.339966,462.863464 538.972046,475.399628 
	C527.646851,475.799927 516.320312,475.778931 504.537170,475.682678 
z"/>
<path fill="#FCFDFD" opacity="1.000000" stroke="none" 
	d="
M484.145691,474.330536 
	C484.700317,474.470795 485.201416,474.892365 485.824371,475.531799 
	C485.529938,475.799194 485.113647,475.848755 484.388000,475.826630 
	C484.083130,475.373932 484.087646,474.992889 484.145691,474.330536 
z"/>
<path fill="#D6AB8A" opacity="1.000000" stroke="none" 
	d="
M367.797119,592.838318 
	C364.700317,592.672913 361.363190,592.196777 357.710266,591.436035 
	C360.781860,591.610168 364.169342,592.068909 367.797119,592.838318 
z"/>
<path fill="#D6AB8A" opacity="1.000000" stroke="none" 
	d="
M338.745728,586.869629 
	C337.773285,586.977112 336.602448,586.769348 335.162231,586.325684 
	C336.111053,586.244629 337.329193,586.399536 338.745728,586.869629 
z"/>
<path fill="#D6AB8A" opacity="1.000000" stroke="none" 
	d="
M342.836639,587.901611 
	C341.834717,588.026123 340.610046,587.837402 339.121643,587.386597 
	C340.109894,587.279114 341.361908,587.433716 342.836639,587.901611 
z"/>
<path fill="#D6AB8A" opacity="1.000000" stroke="none" 
	d="
M373.765747,593.804382 
	C372.676239,594.003235 371.317505,593.888306 369.664124,593.483276 
	C370.745148,593.292358 372.120819,593.391418 373.765747,593.804382 
z"/>
<path fill="#D6AB8A" opacity="1.000000" stroke="none" 
	d="
M356.805695,590.879150 
	C355.723724,591.030151 354.387451,590.853516 352.739014,590.408386 
	C353.801697,590.277100 355.176544,590.414307 356.805695,590.879150 
z"/>
<path fill="#D6AB8A" opacity="1.000000" stroke="none" 
	d="
M351.779785,589.816833 
	C350.726685,589.973083 349.416321,589.818298 347.797119,589.404175 
	C348.833038,589.265137 350.177826,589.385498 351.779785,589.816833 
z"/>
<path fill="#D6AB8A" opacity="1.000000" stroke="none" 
	d="
M346.757935,588.775146 
	C345.987457,588.962830 344.959900,588.850586 343.653809,588.459656 
	C344.417114,588.279053 345.458984,588.377136 346.757935,588.775146 
z"/>
<path fill="#FCFDFD" opacity="1.000000" stroke="none" 
	d="
M577.987305,314.011169 
	C577.767029,313.898712 577.557739,313.776581 577.348450,313.654480 
	C577.537598,313.637115 577.726807,313.619751 577.966553,313.791199 
	C578.017090,313.979950 577.998230,314.001465 577.987305,314.011169 
z"/>
<path fill="#E2E3E7" opacity="1.000000" stroke="none" 
	d="
M287.753815,742.668823 
	C298.371521,738.930298 308.761139,736.388550 319.681458,739.130554 
	C321.462708,739.577820 323.121124,740.514343 324.616119,742.305786 
	C309.368927,743.977966 294.121765,745.650146 278.874603,747.322388 
	C278.745483,747.172180 278.616394,747.022034 278.487274,746.871826 
	C281.458557,745.525818 284.429810,744.179871 287.753815,742.668823 
z"/>
<path fill="#8F979E" opacity="1.000000" stroke="none" 
	d="
M372.998322,768.997559 
	C373.771393,768.658630 374.546112,768.322083 375.661652,767.994019 
	C376.002441,768.002441 376.000000,768.000000 375.794281,768.261108 
	C374.726746,768.683044 373.864960,768.843994 373.003143,769.004883 
	C373.003143,769.004883 373.000000,769.000000 372.998322,768.997559 
z"/>
<path fill="#E2E3E7" opacity="1.000000" stroke="none" 
	d="
M276.553741,748.547974 
	C276.490082,748.583984 276.617401,748.511963 276.553741,748.547974 
z"/>
<path fill="#B1B3B9" opacity="1.000000" stroke="none" 
	d="
M355.655945,796.670105 
	C352.818085,798.214600 350.303802,799.584167 347.008087,801.379333 
	C352.745300,789.531250 374.369812,778.023987 387.965332,779.430542 
	C376.837372,785.367371 366.408447,790.931274 355.655945,796.670105 
z"/>
<path fill="#B1B3B9" opacity="1.000000" stroke="none" 
	d="
M372.807495,769.278198 
	C373.864960,768.843994 374.726746,768.683044 375.793579,768.259888 
	C377.217743,768.148010 378.436859,768.298401 380.968445,768.610840 
	C373.960236,775.218323 366.322693,777.867981 358.887726,780.888123 
	C358.541992,780.369141 358.196289,779.850220 357.850555,779.331238 
	C362.770996,776.071350 367.691437,772.811462 372.807495,769.278198 
z"/>
<path fill="#B1B3B9" opacity="1.000000" stroke="none" 
	d="
M384.889130,794.061646 
	C381.277222,795.284180 378.000732,796.356812 374.026093,797.658020 
	C375.838348,790.583740 381.713776,788.517639 387.868042,791.867737 
	C386.891327,792.622986 386.057922,793.267334 384.889130,794.061646 
z"/>
<path fill="#A7ABB0" opacity="1.000000" stroke="none" 
	d="
M223.353958,689.963745 
	C223.006088,689.809082 223.014511,689.620361 223.059265,689.148560 
	C225.143677,687.570312 227.191727,686.275146 229.603653,684.980530 
	C227.881760,686.630554 225.796005,688.280151 223.353958,689.963745 
z"/>
<path fill="#A7ABB0" opacity="1.000000" stroke="none" 
	d="
M230.366302,684.981567 
	C231.749191,683.973999 233.505753,682.979675 235.622833,681.982178 
	C234.235550,682.984253 232.487762,683.989563 230.366302,684.981567 
z"/>
</svg>